# Tiled2Unity generated file. Do not modify by hand.
# Wavefront file for 'House-2_Lang_bibliothek_feuer-RL_mesh_0004.obj'

# Vertices (Count = 8)
v -1 -5 0
v -2 -5 0
v -2 -4 0
v -1 -4 0
v -1 -6 0
v -2 -6 0
v -2 -5 0
v -1 -5 0

# Texture cooridinates (Count = 8)
vt 0.325 0.64
vt 0.325 0.6
vt 0.35 0.6
vt 0.35 0.64
vt 0.275 0.6
vt 0.275 0.56
vt 0.3 0.56
vt 0.3 0.6

# Normal
vn 0 0 -1

# Mesh description
g House-2_Lang_bibliothek_feuer-RL_mesh_0004

# Faces
f 1/1/1 2/2/1 3/3/1 4/4/1
f 5/5/1 6/6/1 7/7/1 8/8/1

