# Tiled2Unity generated file. Do not modify by hand.
# Wavefront file for 'House-2_Lang_bibliothek_feuer-RL_mesh_0002.obj'

# Vertices (Count = 596)
v -7 -1 0
v -8 -1 0
v -8 0 0
v -7 0 0
v -8 -1 0
v -9 -1 0
v -9 0 0
v -8 0 0
v -9 -1 0
v -10 -1 0
v -10 0 0
v -9 0 0
v -10 -1 0
v -11 -1 0
v -11 0 0
v -10 0 0
v -2 -2 0
v -3 -2 0
v -3 -1 0
v -2 -1 0
v -7 -2 0
v -8 -2 0
v -8 -1 0
v -7 -1 0
v -8 -2 0
v -9 -2 0
v -9 -1 0
v -8 -1 0
v -9 -2 0
v -10 -2 0
v -10 -1 0
v -9 -1 0
v -10 -2 0
v -11 -2 0
v -11 -1 0
v -10 -1 0
v -13 -2 0
v -14 -2 0
v -14 -1 0
v -13 -1 0
v 0 -3 0
v -1 -3 0
v -1 -2 0
v 0 -2 0
v -1 -3 0
v -2 -3 0
v -2 -2 0
v -1 -2 0
v -2 -3 0
v -3 -3 0
v -3 -2 0
v -2 -2 0
v -10 -3 0
v -11 -3 0
v -11 -2 0
v -10 -2 0
v -13 -3 0
v -14 -3 0
v -14 -2 0
v -13 -2 0
v -6 -4 0
v -7 -4 0
v -7 -3 0
v -6 -3 0
v -7 -4 0
v -8 -4 0
v -8 -3 0
v -7 -3 0
v -8 -4 0
v -9 -4 0
v -9 -3 0
v -8 -3 0
v -9 -4 0
v -10 -4 0
v -10 -3 0
v -9 -3 0
v -10 -4 0
v -11 -4 0
v -11 -3 0
v -10 -3 0
v -14 -4 0
v -15 -4 0
v -15 -3 0
v -14 -3 0
v -15 -4 0
v -16 -4 0
v -16 -3 0
v -15 -3 0
v 0 -5 0
v -1 -5 0
v -1 -4 0
v 0 -4 0
v -1 -5 0
v -2 -5 0
v -2 -4 0
v -1 -4 0
v -9 -5 0
v -10 -5 0
v -10 -4 0
v -9 -4 0
v -10 -5 0
v -11 -5 0
v -11 -4 0
v -10 -4 0
v -14 -5 0
v -15 -5 0
v -15 -4 0
v -14 -4 0
v -15 -5 0
v -16 -5 0
v -16 -4 0
v -15 -4 0
v 0 -6 0
v -1 -6 0
v -1 -5 0
v 0 -5 0
v -1 -6 0
v -2 -6 0
v -2 -5 0
v -1 -5 0
v -9 -6 0
v -10 -6 0
v -10 -5 0
v -9 -5 0
v -14 -6 0
v -15 -6 0
v -15 -5 0
v -14 -5 0
v -15 -6 0
v -16 -6 0
v -16 -5 0
v -15 -5 0
v -2 -8 0
v -3 -8 0
v -3 -7 0
v -2 -7 0
v -3 -8 0
v -4 -8 0
v -4 -7 0
v -3 -7 0
v -4 -8 0
v -5 -8 0
v -5 -7 0
v -4 -7 0
v -5 -8 0
v -6 -8 0
v -6 -7 0
v -5 -7 0
v -6 -8 0
v -7 -8 0
v -7 -7 0
v -6 -7 0
v -7 -8 0
v -8 -8 0
v -8 -7 0
v -7 -7 0
v -8 -8 0
v -9 -8 0
v -9 -7 0
v -8 -7 0
v -9 -8 0
v -10 -8 0
v -10 -7 0
v -9 -7 0
v -10 -8 0
v -11 -8 0
v -11 -7 0
v -10 -7 0
v -11 -8 0
v -12 -8 0
v -12 -7 0
v -11 -7 0
v -12 -8 0
v -13 -8 0
v -13 -7 0
v -12 -7 0
v -2 -9 0
v -3 -9 0
v -3 -8 0
v -2 -8 0
v -3 -9 0
v -4 -9 0
v -4 -8 0
v -3 -8 0
v -4 -9 0
v -5 -9 0
v -5 -8 0
v -4 -8 0
v -5 -9 0
v -6 -9 0
v -6 -8 0
v -5 -8 0
v -6 -9 0
v -7 -9 0
v -7 -8 0
v -6 -8 0
v -7 -9 0
v -8 -9 0
v -8 -8 0
v -7 -8 0
v -8 -9 0
v -9 -9 0
v -9 -8 0
v -8 -8 0
v -9 -9 0
v -10 -9 0
v -10 -8 0
v -9 -8 0
v -10 -9 0
v -11 -9 0
v -11 -8 0
v -10 -8 0
v -11 -9 0
v -12 -9 0
v -12 -8 0
v -11 -8 0
v -12 -9 0
v -13 -9 0
v -13 -8 0
v -12 -8 0
v -14 -9 0
v -15 -9 0
v -15 -8 0
v -14 -8 0
v -15 -9 0
v -16 -9 0
v -16 -8 0
v -15 -8 0
v -2 -10 0
v -3 -10 0
v -3 -9 0
v -2 -9 0
v -3 -10 0
v -4 -10 0
v -4 -9 0
v -3 -9 0
v -4 -10 0
v -5 -10 0
v -5 -9 0
v -4 -9 0
v -5 -10 0
v -6 -10 0
v -6 -9 0
v -5 -9 0
v -6 -10 0
v -7 -10 0
v -7 -9 0
v -6 -9 0
v -7 -10 0
v -8 -10 0
v -8 -9 0
v -7 -9 0
v -8 -10 0
v -9 -10 0
v -9 -9 0
v -8 -9 0
v -9 -10 0
v -10 -10 0
v -10 -9 0
v -9 -9 0
v -10 -10 0
v -11 -10 0
v -11 -9 0
v -10 -9 0
v -11 -10 0
v -12 -10 0
v -12 -9 0
v -11 -9 0
v -12 -10 0
v -13 -10 0
v -13 -9 0
v -12 -9 0
v 0 -11 0
v -1 -11 0
v -1 -10 0
v 0 -10 0
v -1 -11 0
v -2 -11 0
v -2 -10 0
v -1 -10 0
v -2 -12 0
v -3 -12 0
v -3 -11 0
v -2 -11 0
v -3 -12 0
v -4 -12 0
v -4 -11 0
v -3 -11 0
v -4 -12 0
v -5 -12 0
v -5 -11 0
v -4 -11 0
v -5 -12 0
v -6 -12 0
v -6 -11 0
v -5 -11 0
v -6 -12 0
v -7 -12 0
v -7 -11 0
v -6 -11 0
v -7 -12 0
v -8 -12 0
v -8 -11 0
v -7 -11 0
v -8 -12 0
v -9 -12 0
v -9 -11 0
v -8 -11 0
v -10 -12 0
v -11 -12 0
v -11 -11 0
v -10 -11 0
v -11 -12 0
v -12 -12 0
v -12 -11 0
v -11 -11 0
v -12 -12 0
v -13 -12 0
v -13 -11 0
v -12 -11 0
v -13 -12 0
v -14 -12 0
v -14 -11 0
v -13 -11 0
v -2 -13 0
v -3 -13 0
v -3 -12 0
v -2 -12 0
v -3 -13 0
v -4 -13 0
v -4 -12 0
v -3 -12 0
v -4 -13 0
v -5 -13 0
v -5 -12 0
v -4 -12 0
v -5 -13 0
v -6 -13 0
v -6 -12 0
v -5 -12 0
v -6 -13 0
v -7 -13 0
v -7 -12 0
v -6 -12 0
v -7 -13 0
v -8 -13 0
v -8 -12 0
v -7 -12 0
v -8 -13 0
v -9 -13 0
v -9 -12 0
v -8 -12 0
v -10 -13 0
v -11 -13 0
v -11 -12 0
v -10 -12 0
v -11 -13 0
v -12 -13 0
v -12 -12 0
v -11 -12 0
v -12 -13 0
v -13 -13 0
v -13 -12 0
v -12 -12 0
v -13 -13 0
v -14 -13 0
v -14 -12 0
v -13 -12 0
v -2 -14 0
v -3 -14 0
v -3 -13 0
v -2 -13 0
v -3 -14 0
v -4 -14 0
v -4 -13 0
v -3 -13 0
v -4 -14 0
v -5 -14 0
v -5 -13 0
v -4 -13 0
v -5 -14 0
v -6 -14 0
v -6 -13 0
v -5 -13 0
v -6 -14 0
v -7 -14 0
v -7 -13 0
v -6 -13 0
v -7 -14 0
v -8 -14 0
v -8 -13 0
v -7 -13 0
v -8 -14 0
v -9 -14 0
v -9 -13 0
v -8 -13 0
v -10 -14 0
v -11 -14 0
v -11 -13 0
v -10 -13 0
v -11 -14 0
v -12 -14 0
v -12 -13 0
v -11 -13 0
v -12 -14 0
v -13 -14 0
v -13 -13 0
v -12 -13 0
v -13 -14 0
v -14 -14 0
v -14 -13 0
v -13 -13 0
v 0 -15 0
v -1 -15 0
v -1 -14 0
v 0 -14 0
v -1 -15 0
v -2 -15 0
v -2 -14 0
v -1 -14 0
v -14 -15 0
v -15 -15 0
v -15 -14 0
v -14 -14 0
v -15 -15 0
v -16 -15 0
v -16 -14 0
v -15 -14 0
v -3 -16 0
v -4 -16 0
v -4 -15 0
v -3 -15 0
v -4 -16 0
v -5 -16 0
v -5 -15 0
v -4 -15 0
v -5 -16 0
v -6 -16 0
v -6 -15 0
v -5 -15 0
v -6 -16 0
v -7 -16 0
v -7 -15 0
v -6 -15 0
v -7 -16 0
v -8 -16 0
v -8 -15 0
v -7 -15 0
v -12 -16 0
v -13 -16 0
v -13 -15 0
v -12 -15 0
v 0 -17 0
v -1 -17 0
v -1 -16 0
v 0 -16 0
v -1 -17 0
v -2 -17 0
v -2 -16 0
v -1 -16 0
v -3 -17 0
v -4 -17 0
v -4 -16 0
v -3 -16 0
v -4 -17 0
v -5 -17 0
v -5 -16 0
v -4 -16 0
v -5 -17 0
v -6 -17 0
v -6 -16 0
v -5 -16 0
v -6 -17 0
v -7 -17 0
v -7 -16 0
v -6 -16 0
v -7 -17 0
v -8 -17 0
v -8 -16 0
v -7 -16 0
v -10 -17 0
v -11 -17 0
v -11 -16 0
v -10 -16 0
v -11 -17 0
v -12 -17 0
v -12 -16 0
v -11 -16 0
v -12 -17 0
v -13 -17 0
v -13 -16 0
v -12 -16 0
v -14 -17 0
v -15 -17 0
v -15 -16 0
v -14 -16 0
v -15 -17 0
v -16 -17 0
v -16 -16 0
v -15 -16 0
v 0 -18 0
v -1 -18 0
v -1 -17 0
v 0 -17 0
v -1 -18 0
v -2 -18 0
v -2 -17 0
v -1 -17 0
v -3 -18 0
v -4 -18 0
v -4 -17 0
v -3 -17 0
v -4 -18 0
v -5 -18 0
v -5 -17 0
v -4 -17 0
v -5 -18 0
v -6 -18 0
v -6 -17 0
v -5 -17 0
v -6 -18 0
v -7 -18 0
v -7 -17 0
v -6 -17 0
v -7 -18 0
v -8 -18 0
v -8 -17 0
v -7 -17 0
v -10 -18 0
v -11 -18 0
v -11 -17 0
v -10 -17 0
v -11 -18 0
v -12 -18 0
v -12 -17 0
v -11 -17 0
v -12 -18 0
v -13 -18 0
v -13 -17 0
v -12 -17 0
v -14 -18 0
v -15 -18 0
v -15 -17 0
v -14 -17 0
v -15 -18 0
v -16 -18 0
v -16 -17 0
v -15 -17 0
v 0 -20 0
v -1 -20 0
v -1 -19 0
v 0 -19 0
v -1 -20 0
v -2 -20 0
v -2 -19 0
v -1 -19 0
v -14 -20 0
v -15 -20 0
v -15 -19 0
v -14 -19 0
v -15 -20 0
v -16 -20 0
v -16 -19 0
v -15 -19 0
v -3 -21 0
v -4 -21 0
v -4 -20 0
v -3 -20 0
v -4 -21 0
v -5 -21 0
v -5 -20 0
v -4 -20 0
v -11 -21 0
v -12 -21 0
v -12 -20 0
v -11 -20 0
v -12 -21 0
v -13 -21 0
v -13 -20 0
v -12 -20 0
v -3 -22 0
v -4 -22 0
v -4 -21 0
v -3 -21 0
v -4 -22 0
v -5 -22 0
v -5 -21 0
v -4 -21 0
v -11 -22 0
v -12 -22 0
v -12 -21 0
v -11 -21 0
v -12 -22 0
v -13 -22 0
v -13 -21 0
v -12 -21 0

# Texture cooridinates (Count = 92)
vt 0.1 0.36
vt 0.125 0.36
vt 0.125 0.4
vt 0.1 0.4
vt 0.2 0.92
vt 0.225 0.92
vt 0.225 0.96
vt 0.2 0.96
vt 0.2 0.48
vt 0.225 0.48
vt 0.225 0.52
vt 0.2 0.52
vt 0.1 0.32
vt 0.125 0.32
vt 0.2 0.44
vt 0.225 0.44
vt 0.15 0.44
vt 0.175 0.44
vt 0.175 0.48
vt 0.15 0.48
vt 0.15 0.6
vt 0.175 0.6
vt 0.175 0.64
vt 0.15 0.64
vt 0.2 0.6
vt 0.2 0.64
vt 0.225 0.6
vt 0.225 0.64
vt 0.15 0.4
vt 0.175 0.4
vt 0.25 0.84
vt 0.25 0.8
vt 0.275 0.8
vt 0.275 0.84
vt 0.25 0.76
vt 0.275 0.76
vt 0.05 0.44
vt 0.075 0.44
vt 0.075 0.48
vt 0.05 0.48
vt 0.15 0.36
vt 0.175 0.36
vt 0.225 0.84
vt 0.225 0.8
vt 0.225 0.76
vt 0.05 0.4
vt 0.075 0.4
vt 0.1 0.48
vt 0.1 0.52
vt 0.075 0.52
vt 0.125 0.48
vt 0.125 0.52
vt 0.025 0.44
vt 0.025 0.48
vt 0.15 0.52
vt 0 0.4
vt 0.025 0.4
vt 0 0.44
vt 0 0.48
vt 0.025 0.52
vt 0 0.52
vt 0.05 0.52
vt 0.25 0.68
vt 0.275 0.68
vt 0.275 0.72
vt 0.25 0.72
vt 0.3 0.68
vt 0.3 0.72
vt 0.325 0.68
vt 0.325 0.72
vt 0.45 0.8
vt 0.475 0.8
vt 0.475 0.84
vt 0.45 0.84
vt 0.25 0.64
vt 0.275 0.64
vt 0.3 0.64
vt 0.325 0.64
vt 0.45 0.76
vt 0.475 0.76
vt 0.25 0.6
vt 0.275 0.6
vt 0.3 0.6
vt 0.325 0.6
vt 0.275 0.88
vt 0.25 0.88
vt 0.3 0.84
vt 0.325 0.84
vt 0.325 0.88
vt 0.3 0.88
vt 0.45 0.72
vt 0.475 0.72

# Normal
vn 0 0 -1

# Mesh description
g House-2_Lang_bibliothek_feuer-RL_mesh_0002

# Faces
f 1/1/1 2/2/1 3/3/1 4/4/1
f 5/5/1 6/6/1 7/7/1 8/8/1
f 9/5/1 10/6/1 11/7/1 12/8/1
f 13/1/1 14/2/1 15/3/1 16/4/1
f 17/9/1 18/10/1 19/11/1 20/12/1
f 21/13/1 22/14/1 23/2/1 24/1/1
f 25/5/1 26/6/1 27/7/1 28/8/1
f 29/5/1 30/6/1 31/7/1 32/8/1
f 33/13/1 34/14/1 35/2/1 36/1/1
f 37/9/1 38/10/1 39/11/1 40/12/1
f 41/4/1 42/1/1 43/2/1 44/3/1
f 45/1/1 46/13/1 47/14/1 48/2/1
f 49/15/1 50/16/1 51/10/1 52/9/1
f 53/17/1 54/18/1 55/19/1 56/20/1
f 57/15/1 58/16/1 59/10/1 60/9/1
f 61/21/1 62/22/1 63/23/1 64/24/1
f 65/22/1 66/25/1 67/26/1 68/23/1
f 69/22/1 70/25/1 71/26/1 72/23/1
f 73/25/1 74/27/1 75/28/1 76/26/1
f 77/29/1 78/30/1 79/18/1 80/17/1
f 81/14/1 82/2/1 83/1/1 84/13/1
f 85/2/1 86/3/1 87/4/1 88/1/1
f 89/31/1 90/32/1 91/33/1 92/34/1
f 93/32/1 94/35/1 95/36/1 96/33/1
f 97/37/1 98/38/1 99/39/1 100/40/1
f 101/41/1 102/42/1 103/30/1 104/29/1
f 105/31/1 106/32/1 107/33/1 108/34/1
f 109/32/1 110/35/1 111/36/1 112/33/1
f 113/43/1 114/44/1 115/32/1 116/31/1
f 117/44/1 118/45/1 119/35/1 120/32/1
f 121/46/1 122/47/1 123/38/1 124/37/1
f 125/43/1 126/44/1 127/32/1 128/31/1
f 129/44/1 130/45/1 131/35/1 132/32/1
f 133/21/1 134/22/1 135/23/1 136/24/1
f 137/22/1 138/25/1 139/26/1 140/23/1
f 141/22/1 142/25/1 143/26/1 144/23/1
f 145/22/1 146/25/1 147/26/1 148/23/1
f 149/22/1 150/25/1 151/26/1 152/23/1
f 153/22/1 154/25/1 155/26/1 156/23/1
f 157/22/1 158/25/1 159/26/1 160/23/1
f 161/22/1 162/25/1 163/26/1 164/23/1
f 165/22/1 166/25/1 167/26/1 168/23/1
f 169/22/1 170/25/1 171/26/1 172/23/1
f 173/25/1 174/27/1 175/28/1 176/26/1
f 177/39/1 178/48/1 179/49/1 180/50/1
f 181/48/1 182/51/1 183/52/1 184/49/1
f 185/48/1 186/51/1 187/52/1 188/49/1
f 189/48/1 190/51/1 191/52/1 192/49/1
f 193/53/1 194/37/1 195/40/1 196/54/1
f 197/48/1 198/51/1 199/52/1 200/49/1
f 201/48/1 202/51/1 203/52/1 204/49/1
f 205/53/1 206/37/1 207/40/1 208/54/1
f 209/48/1 210/51/1 211/52/1 212/49/1
f 213/53/1 214/37/1 215/40/1 216/54/1
f 217/51/1 218/20/1 219/55/1 220/52/1
f 221/14/1 222/2/1 223/1/1 224/13/1
f 225/2/1 226/3/1 227/4/1 228/1/1
f 229/56/1 230/57/1 231/53/1 232/58/1
f 233/57/1 234/46/1 235/37/1 236/53/1
f 237/57/1 238/46/1 239/37/1 240/53/1
f 241/57/1 242/46/1 243/37/1 244/53/1
f 245/57/1 246/46/1 247/37/1 248/53/1
f 249/57/1 250/46/1 251/37/1 252/53/1
f 253/57/1 254/46/1 255/37/1 256/53/1
f 257/57/1 258/46/1 259/37/1 260/53/1
f 261/57/1 262/46/1 263/37/1 264/53/1
f 265/57/1 266/46/1 267/37/1 268/53/1
f 269/46/1 270/47/1 271/38/1 272/37/1
f 273/4/1 274/1/1 275/2/1 276/3/1
f 277/1/1 278/13/1 279/14/1 280/2/1
f 281/59/1 282/54/1 283/60/1 284/61/1
f 285/54/1 286/40/1 287/62/1 288/60/1
f 289/54/1 290/40/1 291/62/1 292/60/1
f 293/54/1 294/40/1 295/62/1 296/60/1
f 297/54/1 298/40/1 299/62/1 300/60/1
f 301/54/1 302/40/1 303/62/1 304/60/1
f 305/40/1 306/39/1 307/50/1 308/62/1
f 309/59/1 310/54/1 311/60/1 312/61/1
f 313/54/1 314/40/1 315/62/1 316/60/1
f 317/54/1 318/40/1 319/62/1 320/60/1
f 321/40/1 322/39/1 323/50/1 324/62/1
f 325/39/1 326/48/1 327/49/1 328/50/1
f 329/48/1 330/51/1 331/52/1 332/49/1
f 333/53/1 334/37/1 335/40/1 336/54/1
f 337/48/1 338/51/1 339/52/1 340/49/1
f 341/48/1 342/51/1 343/52/1 344/49/1
f 345/53/1 346/37/1 347/40/1 348/54/1
f 349/51/1 350/20/1 351/55/1 352/52/1
f 353/39/1 354/48/1 355/49/1 356/50/1
f 357/53/1 358/37/1 359/40/1 360/54/1
f 361/48/1 362/51/1 363/52/1 364/49/1
f 365/51/1 366/20/1 367/55/1 368/52/1
f 369/56/1 370/57/1 371/53/1 372/58/1
f 373/57/1 374/46/1 375/37/1 376/53/1
f 377/57/1 378/46/1 379/37/1 380/53/1
f 381/57/1 382/46/1 383/37/1 384/53/1
f 385/57/1 386/46/1 387/37/1 388/53/1
f 389/57/1 390/46/1 391/37/1 392/53/1
f 393/46/1 394/47/1 395/38/1 396/37/1
f 397/56/1 398/57/1 399/53/1 400/58/1
f 401/57/1 402/46/1 403/37/1 404/53/1
f 405/57/1 406/46/1 407/37/1 408/53/1
f 409/46/1 410/47/1 411/38/1 412/37/1
f 413/4/1 414/1/1 415/2/1 416/3/1
f 417/1/1 418/13/1 419/14/1 420/2/1
f 421/14/1 422/2/1 423/1/1 424/13/1
f 425/2/1 426/3/1 427/4/1 428/1/1
f 429/63/1 430/64/1 431/65/1 432/66/1
f 433/64/1 434/67/1 435/68/1 436/65/1
f 437/64/1 438/67/1 439/68/1 440/65/1
f 441/64/1 442/67/1 443/68/1 444/65/1
f 445/67/1 446/69/1 447/70/1 448/68/1
f 449/71/1 450/72/1 451/73/1 452/74/1
f 453/31/1 454/32/1 455/33/1 456/34/1
f 457/32/1 458/35/1 459/36/1 460/33/1
f 461/75/1 462/76/1 463/64/1 464/63/1
f 465/76/1 466/77/1 467/67/1 468/64/1
f 469/76/1 470/77/1 471/67/1 472/64/1
f 473/76/1 474/77/1 475/67/1 476/64/1
f 477/77/1 478/78/1 479/69/1 480/67/1
f 481/63/1 482/64/1 483/65/1 484/66/1
f 485/67/1 486/69/1 487/70/1 488/68/1
f 489/79/1 490/80/1 491/72/1 492/71/1
f 493/31/1 494/32/1 495/33/1 496/34/1
f 497/32/1 498/35/1 499/36/1 500/33/1
f 501/43/1 502/44/1 503/32/1 504/31/1
f 505/44/1 506/45/1 507/35/1 508/32/1
f 509/81/1 510/82/1 511/76/1 512/75/1
f 513/82/1 514/83/1 515/77/1 516/76/1
f 517/82/1 518/83/1 519/77/1 520/76/1
f 521/82/1 522/83/1 523/77/1 524/76/1
f 525/83/1 526/84/1 527/78/1 528/77/1
f 529/31/1 530/34/1 531/85/1 532/86/1
f 533/87/1 534/88/1 535/89/1 536/90/1
f 537/91/1 538/92/1 539/80/1 540/79/1
f 541/43/1 542/44/1 543/32/1 544/31/1
f 545/44/1 546/45/1 547/35/1 548/32/1
f 549/4/1 550/1/1 551/2/1 552/3/1
f 553/1/1 554/13/1 555/14/1 556/2/1
f 557/14/1 558/2/1 559/1/1 560/13/1
f 561/2/1 562/3/1 563/4/1 564/1/1
f 565/44/1 566/32/1 567/31/1 568/43/1
f 569/32/1 570/33/1 571/34/1 572/31/1
f 573/44/1 574/32/1 575/31/1 576/43/1
f 577/32/1 578/33/1 579/34/1 580/31/1
f 581/45/1 582/35/1 583/32/1 584/44/1
f 585/35/1 586/36/1 587/33/1 588/32/1
f 589/45/1 590/35/1 591/32/1 592/44/1
f 593/35/1 594/36/1 595/33/1 596/32/1

