# Tiled2Unity generated file. Do not modify by hand.
# Wavefront file for 'House-2_klein_mesh_0003.obj'

# Vertices (Count = 56)
v -13 -3 0
v -14 -3 0
v -14 -2 0
v -13 -2 0
v -3 -4 0
v -4 -4 0
v -4 -3 0
v -3 -3 0
v -6 -13 0
v -7 -13 0
v -7 -12 0
v -6 -12 0
v -7 -13 0
v -8 -13 0
v -8 -12 0
v -7 -12 0
v -8 -13 0
v -9 -13 0
v -9 -12 0
v -8 -12 0
v -9 -13 0
v -10 -13 0
v -10 -12 0
v -9 -12 0
v -6 -14 0
v -7 -14 0
v -7 -13 0
v -6 -13 0
v -7 -14 0
v -8 -14 0
v -8 -13 0
v -7 -13 0
v -8 -14 0
v -9 -14 0
v -9 -13 0
v -8 -13 0
v -9 -14 0
v -10 -14 0
v -10 -13 0
v -9 -13 0
v -7 -15 0
v -8 -15 0
v -8 -14 0
v -7 -14 0
v -8 -15 0
v -9 -15 0
v -9 -14 0
v -8 -14 0
v -7 -16 0
v -8 -16 0
v -8 -15 0
v -7 -15 0
v -8 -16 0
v -9 -16 0
v -9 -15 0
v -8 -15 0

# Texture cooridinates (Count = 23)
vt 0.325 0.6
vt 0.35 0.6
vt 0.35 0.64
vt 0.325 0.64
vt 0 0.68
vt 0.025 0.68
vt 0.025 0.72
vt 0 0.72
vt 0.05 0.68
vt 0.05 0.72
vt 0.075 0.68
vt 0.075 0.72
vt 0 0.6
vt 0.025 0.6
vt 0.025 0.64
vt 0 0.64
vt 0.025 0.56
vt 0.05 0.56
vt 0.05 0.6
vt 0 0.56
vt 0.075 0.6
vt 0.075 0.64
vt 0.05 0.64

# Normal
vn 0 0 -1

# Mesh description
g House-2_klein_mesh_0003

# Faces
f 1/1/1 2/2/1 3/3/1 4/4/1
f 5/1/1 6/2/1 7/3/1 8/4/1
f 9/5/1 10/6/1 11/7/1 12/8/1
f 13/6/1 14/9/1 15/10/1 16/7/1
f 17/6/1 18/9/1 19/10/1 20/7/1
f 21/9/1 22/11/1 23/12/1 24/10/1
f 25/13/1 26/14/1 27/15/1 28/16/1
f 29/17/1 30/18/1 31/19/1 32/14/1
f 33/20/1 34/17/1 35/14/1 36/13/1
f 37/19/1 38/21/1 39/22/1 40/23/1
f 41/16/1 42/15/1 43/6/1 44/5/1
f 45/23/1 46/22/1 47/11/1 48/9/1
f 49/13/1 50/14/1 51/15/1 52/16/1
f 53/19/1 54/21/1 55/22/1 56/23/1

