# Tiled2Unity generated file. Do not modify by hand.
# Wavefront file for 'House-3_klein_mesh_0003.obj'

# Vertices (Count = 104)
v -9 -1 0
v -10 -1 0
v -10 0 0
v -9 0 0
v -6 -2 0
v -7 -2 0
v -7 -1 0
v -6 -1 0
v -7 -2 0
v -8 -2 0
v -8 -1 0
v -7 -1 0
v -8 -2 0
v -9 -2 0
v -9 -1 0
v -8 -1 0
v -9 -2 0
v -10 -2 0
v -10 -1 0
v -9 -1 0
v -12 -2 0
v -13 -2 0
v -13 -1 0
v -12 -1 0
v -13 -2 0
v -14 -2 0
v -14 -1 0
v -13 -1 0
v -1 -3 0
v -2 -3 0
v -2 -2 0
v -1 -2 0
v -2 -3 0
v -3 -3 0
v -3 -2 0
v -2 -2 0
v -12 -3 0
v -13 -3 0
v -13 -2 0
v -12 -2 0
v -13 -3 0
v -14 -3 0
v -14 -2 0
v -13 -2 0
v -1 -4 0
v -2 -4 0
v -2 -3 0
v -1 -3 0
v -2 -4 0
v -3 -4 0
v -3 -3 0
v -2 -3 0
v -12 -4 0
v -13 -4 0
v -13 -3 0
v -12 -3 0
v -13 -4 0
v -14 -4 0
v -14 -3 0
v -13 -3 0
v -1 -5 0
v -2 -5 0
v -2 -4 0
v -1 -4 0
v -2 -5 0
v -3 -5 0
v -3 -4 0
v -2 -4 0
v -4 -9 0
v -5 -9 0
v -5 -8 0
v -4 -8 0
v -13 -9 0
v -14 -9 0
v -14 -8 0
v -13 -8 0
v -4 -10 0
v -5 -10 0
v -5 -9 0
v -4 -9 0
v -13 -10 0
v -14 -10 0
v -14 -9 0
v -13 -9 0
v -12 -11 0
v -13 -11 0
v -13 -10 0
v -12 -10 0
v -13 -11 0
v -14 -11 0
v -14 -10 0
v -13 -10 0
v -13 -12 0
v -14 -12 0
v -14 -11 0
v -13 -11 0
v -13 -13 0
v -14 -13 0
v -14 -12 0
v -13 -12 0
v -13 -14 0
v -14 -14 0
v -14 -13 0
v -13 -13 0

# Texture cooridinates (Count = 55)
vt 0.1 0.56
vt 0.125 0.56
vt 0.125 0.6
vt 0.1 0.6
vt 0.225 0.48
vt 0.25 0.48
vt 0.25 0.52
vt 0.225 0.52
vt 0.325 0.6
vt 0.35 0.6
vt 0.35 0.64
vt 0.325 0.64
vt 0.25 0.72
vt 0.275 0.72
vt 0.275 0.76
vt 0.25 0.76
vt 0.1 0.52
vt 0.125 0.52
vt 0.5 0.92
vt 0.525 0.92
vt 0.525 0.96
vt 0.5 0.96
vt 0.55 0.92
vt 0.55 0.96
vt 0.4 0.72
vt 0.4 0.68
vt 0.425 0.68
vt 0.425 0.72
vt 0.4 0.64
vt 0.425 0.64
vt 0.5 0.88
vt 0.525 0.88
vt 0.55 0.88
vt 0.375 0.72
vt 0.375 0.68
vt 0.375 0.64
vt 0.5 0.84
vt 0.525 0.84
vt 0.55 0.84
vt 0.35 0.72
vt 0.35 0.68
vt 0.2 0.48
vt 0.2 0.52
vt 0.275 0.52
vt 0.275 0.56
vt 0.25 0.56
vt 0.2 0.44
vt 0.225 0.44
vt 0.4 0.8
vt 0.425 0.8
vt 0.425 0.84
vt 0.4 0.84
vt 0.3 0.56
vt 0.3 0.6
vt 0.275 0.6

# Normal
vn 0 0 -1

# Mesh description
g House-3_klein_mesh_0003

# Faces
f 1/1/1 2/2/1 3/3/1 4/4/1
f 5/5/1 6/6/1 7/7/1 8/8/1
f 9/9/1 10/10/1 11/11/1 12/12/1
f 13/13/1 14/14/1 15/15/1 16/16/1
f 17/17/1 18/18/1 19/2/1 20/1/1
f 21/19/1 22/20/1 23/21/1 24/22/1
f 25/20/1 26/23/1 27/24/1 28/21/1
f 29/25/1 30/26/1 31/27/1 32/28/1
f 33/26/1 34/29/1 35/30/1 36/27/1
f 37/31/1 38/32/1 39/20/1 40/19/1
f 41/32/1 42/33/1 43/23/1 44/20/1
f 45/34/1 46/35/1 47/26/1 48/25/1
f 49/35/1 50/36/1 51/29/1 52/26/1
f 53/37/1 54/38/1 55/32/1 56/31/1
f 57/38/1 58/39/1 59/33/1 60/32/1
f 61/40/1 62/41/1 63/35/1 64/34/1
f 65/41/1 66/11/1 67/36/1 68/35/1
f 69/42/1 70/5/1 71/8/1 72/43/1
f 73/7/1 74/44/1 75/45/1 76/46/1
f 77/47/1 78/48/1 79/5/1 80/42/1
f 81/10/1 82/11/1 83/12/1 84/9/1
f 85/49/1 86/50/1 87/51/1 88/52/1
f 89/45/1 90/53/1 91/54/1 92/55/1
f 93/10/1 94/11/1 95/12/1 96/9/1
f 97/42/1 98/5/1 99/8/1 100/43/1
f 101/47/1 102/48/1 103/5/1 104/42/1

