# Tiled2Unity generated file. Do not modify by hand.
# Wavefront file for 'House-3_Lang_Lager_feuer_R_mesh_0009.obj'

# Vertices (Count = 8)
v -13 -8 0
v -14 -8 0
v -14 -7 0
v -13 -7 0
v -3 -18 0
v -4 -18 0
v -4 -17 0
v -3 -17 0

# Texture cooridinates (Count = 8)
vt 0.375 0.64
vt 0.375 0.68
vt 0.35 0.68
vt 0.35 0.64
vt 0.275 0.92
vt 0.3 0.92
vt 0.3 0.96
vt 0.275 0.96

# Normal
vn 0 0 -1

# Mesh description
g House-3_Lang_Lager_feuer_R_mesh_0009

# Faces
f 1/1/1 2/2/1 3/3/1 4/4/1
f 5/5/1 6/6/1 7/7/1 8/8/1

