# Tiled2Unity generated file. Do not modify by hand.
# Wavefront file for 'House-3_Lang_Lager_feuer_R_mesh_0003.obj'

# Vertices (Count = 8)
v -5 -2 0
v -6 -2 0
v -6 -1 0
v -5 -1 0
v -10 -2 0
v -11 -2 0
v -11 -1 0
v -10 -1 0

# Texture cooridinates (Count = 6)
vt 0.4242424 0.9
vt 0.4545455 0.9
vt 0.4545455 0.95
vt 0.4242424 0.95
vt 0.4848485 0.9
vt 0.4848485 0.95

# Normal
vn 0 0 -1

# Mesh description
g House-3_Lang_Lager_feuer_R_mesh_0003

# Faces
f 1/1/1 2/2/1 3/3/1 4/4/1
f 5/2/1 6/5/1 7/6/1 8/3/1

