# Tiled2Unity generated file. Do not modify by hand.
# Wavefront file for 'House-3_Lang_Lager_feuer_R_mesh_0004.obj'

# Vertices (Count = 148)
v -6 -4 0
v -7 -4 0
v -7 -3 0
v -6 -3 0
v -7 -4 0
v -8 -4 0
v -8 -3 0
v -7 -3 0
v -8 -4 0
v -9 -4 0
v -9 -3 0
v -8 -3 0
v -9 -4 0
v -10 -4 0
v -10 -3 0
v -9 -3 0
v -12 -4 0
v -13 -4 0
v -13 -3 0
v -12 -3 0
v -13 -4 0
v -14 -4 0
v -14 -3 0
v -13 -3 0
v -5 -5 0
v -6 -5 0
v -6 -4 0
v -5 -4 0
v -6 -5 0
v -7 -5 0
v -7 -4 0
v -6 -4 0
v -7 -5 0
v -8 -5 0
v -8 -4 0
v -7 -4 0
v -8 -5 0
v -9 -5 0
v -9 -4 0
v -8 -4 0
v -9 -5 0
v -10 -5 0
v -10 -4 0
v -9 -4 0
v -11 -5 0
v -12 -5 0
v -12 -4 0
v -11 -4 0
v -12 -5 0
v -13 -5 0
v -13 -4 0
v -12 -4 0
v -13 -5 0
v -14 -5 0
v -14 -4 0
v -13 -4 0
v -5 -6 0
v -6 -6 0
v -6 -5 0
v -5 -5 0
v -6 -6 0
v -7 -6 0
v -7 -5 0
v -6 -5 0
v -7 -6 0
v -8 -6 0
v -8 -5 0
v -7 -5 0
v -8 -6 0
v -9 -6 0
v -9 -5 0
v -8 -5 0
v -9 -6 0
v -10 -6 0
v -10 -5 0
v -9 -5 0
v -11 -6 0
v -12 -6 0
v -12 -5 0
v -11 -5 0
v -12 -6 0
v -13 -6 0
v -13 -5 0
v -12 -5 0
v -13 -6 0
v -14 -6 0
v -14 -5 0
v -13 -5 0
v -5 -7 0
v -6 -7 0
v -6 -6 0
v -5 -6 0
v -6 -7 0
v -7 -7 0
v -7 -6 0
v -6 -6 0
v -7 -7 0
v -8 -7 0
v -8 -6 0
v -7 -6 0
v -8 -7 0
v -9 -7 0
v -9 -6 0
v -8 -6 0
v -9 -7 0
v -10 -7 0
v -10 -6 0
v -9 -6 0
v -11 -7 0
v -12 -7 0
v -12 -6 0
v -11 -6 0
v -12 -7 0
v -13 -7 0
v -13 -6 0
v -12 -6 0
v -13 -7 0
v -14 -7 0
v -14 -6 0
v -13 -6 0
v -5 -8 0
v -6 -8 0
v -6 -7 0
v -5 -7 0
v -6 -8 0
v -7 -8 0
v -7 -7 0
v -6 -7 0
v -7 -8 0
v -8 -8 0
v -8 -7 0
v -7 -7 0
v -8 -8 0
v -9 -8 0
v -9 -7 0
v -8 -7 0
v -9 -8 0
v -10 -8 0
v -10 -7 0
v -9 -7 0
v -12 -8 0
v -13 -8 0
v -13 -7 0
v -12 -7 0
v -13 -8 0
v -14 -8 0
v -14 -7 0
v -13 -7 0

# Texture cooridinates (Count = 19)
vt 0.75 0.9722222
vt 0.775 0.9722222
vt 0.775 1
vt 0.75 1
vt 0.825 0.9722222
vt 0.85 0.9722222
vt 0.85 1
vt 0.825 1
vt 0.8 0.9722222
vt 0.8 1
vt 0.775 0.9166667
vt 0.8 0.9166667
vt 0.8 0.9444444
vt 0.775 0.9444444
vt 0.875 0.9722222
vt 0.875 1
vt 0.825 0.9444444
vt 0.85 0.9444444
vt 0.75 0.9444444

# Normal
vn 0 0 -1

# Mesh description
g House-3_Lang_Lager_feuer_R_mesh_0004

# Faces
f 1/1/1 2/2/1 3/3/1 4/4/1
f 5/1/1 6/2/1 7/3/1 8/4/1
f 9/1/1 10/2/1 11/3/1 12/4/1
f 13/1/1 14/2/1 15/3/1 16/4/1
f 17/5/1 18/6/1 19/7/1 20/8/1
f 21/5/1 22/6/1 23/7/1 24/8/1
f 25/1/1 26/2/1 27/3/1 28/4/1
f 29/2/1 30/9/1 31/10/1 32/3/1
f 33/11/1 34/12/1 35/13/1 36/14/1
f 37/11/1 38/12/1 39/13/1 40/14/1
f 41/11/1 42/12/1 43/13/1 44/14/1
f 45/5/1 46/6/1 47/7/1 48/8/1
f 49/6/1 50/15/1 51/16/1 52/7/1
f 53/6/1 54/15/1 55/16/1 56/7/1
f 57/2/1 58/9/1 59/10/1 60/3/1
f 61/11/1 62/12/1 63/13/1 64/14/1
f 65/11/1 66/12/1 67/13/1 68/14/1
f 69/11/1 70/12/1 71/13/1 72/14/1
f 73/11/1 74/12/1 75/13/1 76/14/1
f 77/6/1 78/15/1 79/16/1 80/7/1
f 81/6/1 82/15/1 83/16/1 84/7/1
f 85/6/1 86/15/1 87/16/1 88/7/1
f 89/2/1 90/9/1 91/10/1 92/3/1
f 93/2/1 94/9/1 95/10/1 96/3/1
f 97/2/1 98/9/1 99/10/1 100/3/1
f 101/2/1 102/9/1 103/10/1 104/3/1
f 105/2/1 106/9/1 107/10/1 108/3/1
f 109/17/1 110/18/1 111/6/1 112/5/1
f 113/6/1 114/15/1 115/16/1 116/7/1
f 117/6/1 118/15/1 119/16/1 120/7/1
f 121/19/1 122/14/1 123/2/1 124/1/1
f 125/19/1 126/14/1 127/2/1 128/1/1
f 129/19/1 130/14/1 131/2/1 132/1/1
f 133/19/1 134/14/1 135/2/1 136/1/1
f 137/19/1 138/14/1 139/2/1 140/1/1
f 141/17/1 142/18/1 143/6/1 144/5/1
f 145/17/1 146/18/1 147/6/1 148/5/1

