# Tiled2Unity generated file. Do not modify by hand.
# Wavefront file for 'House-3_Lang_Lager_feuer_R_mesh_0008.obj'

# Vertices (Count = 32)
v -6 -7 0
v -7 -7 0
v -7 -6 0
v -6 -6 0
v -8 -7 0
v -9 -7 0
v -9 -6 0
v -8 -6 0
v -10 -13 0
v -11 -13 0
v -11 -12 0
v -10 -12 0
v -13 -14 0
v -14 -14 0
v -14 -13 0
v -13 -13 0
v -9 -18 0
v -10 -18 0
v -10 -17 0
v -9 -17 0
v -3 -19 0
v -4 -19 0
v -4 -18 0
v -3 -18 0
v -9 -19 0
v -10 -19 0
v -10 -18 0
v -9 -18 0
v -9 -20 0
v -10 -20 0
v -10 -19 0
v -9 -19 0

# Texture cooridinates (Count = 10)
vt 0.8 0.9722222
vt 0.825 0.9722222
vt 0.825 1
vt 0.8 1
vt 0.85 0.9722222
vt 0.85 1
vt 0.875 0.9722222
vt 0.875 1
vt 0.825 0.9444444
vt 0.85 0.9444444

# Normal
vn 0 0 -1

# Mesh description
g House-3_Lang_Lager_feuer_R_mesh_0008

# Faces
f 1/1/1 2/2/1 3/3/1 4/4/1
f 5/1/1 6/2/1 7/3/1 8/4/1
f 9/1/1 10/2/1 11/3/1 12/4/1
f 13/2/1 14/3/1 15/4/1 16/1/1
f 17/2/1 18/5/1 19/6/1 20/3/1
f 21/1/1 22/2/1 23/3/1 24/4/1
f 25/5/1 26/7/1 27/8/1 28/6/1
f 29/9/1 30/10/1 31/5/1 32/2/1

