# Tiled2Unity generated file. Do not modify by hand.
# Wavefront file for 'Bibliothek-hinterzimmer_mesh_0003.obj'

# Vertices (Count = 48)
v -3 -3 0
v -4 -3 0
v -4 -2 0
v -3 -2 0
v -6 -3 0
v -7 -3 0
v -7 -2 0
v -6 -2 0
v -3 -4 0
v -4 -4 0
v -4 -3 0
v -3 -3 0
v -6 -4 0
v -7 -4 0
v -7 -3 0
v -6 -3 0
v -3 -5 0
v -4 -5 0
v -4 -4 0
v -3 -4 0
v -6 -5 0
v -7 -5 0
v -7 -4 0
v -6 -4 0
v -3 -17 0
v -4 -17 0
v -4 -16 0
v -3 -16 0
v -6 -17 0
v -7 -17 0
v -7 -16 0
v -6 -16 0
v -3 -18 0
v -4 -18 0
v -4 -17 0
v -3 -17 0
v -6 -18 0
v -7 -18 0
v -7 -17 0
v -6 -17 0
v -3 -19 0
v -4 -19 0
v -4 -18 0
v -3 -18 0
v -6 -19 0
v -7 -19 0
v -7 -18 0
v -6 -18 0

# Texture cooridinates (Count = 16)
vt 0.15 0.96
vt 0.175 0.96
vt 0.175 1
vt 0.15 1
vt 0.2 0.96
vt 0.2 1
vt 0.15 0.92
vt 0.175 0.92
vt 0.2 0.92
vt 0.15 0.88
vt 0.175 0.88
vt 0.2 0.88
vt 0.225 0.96
vt 0.225 1
vt 0.225 0.92
vt 0.225 0.88

# Normal
vn 0 0 -1

# Mesh description
g Bibliothek-hinterzimmer_mesh_0003

# Faces
f 1/1/1 2/2/1 3/3/1 4/4/1
f 5/2/1 6/5/1 7/6/1 8/3/1
f 9/7/1 10/8/1 11/2/1 12/1/1
f 13/8/1 14/9/1 15/5/1 16/2/1
f 17/10/1 18/11/1 19/8/1 20/7/1
f 21/11/1 22/12/1 23/9/1 24/8/1
f 25/5/1 26/13/1 27/14/1 28/6/1
f 29/5/1 30/13/1 31/14/1 32/6/1
f 33/9/1 34/15/1 35/13/1 36/5/1
f 37/9/1 38/15/1 39/13/1 40/5/1
f 41/12/1 42/16/1 43/15/1 44/9/1
f 45/12/1 46/16/1 47/15/1 48/9/1

