# Tiled2Unity generated file. Do not modify by hand.
# Wavefront file for 'WorldArea1_mesh_0004.obj'

# Vertices (Count = 696)
v -14 -1 0
v -15 -1 0
v -15 0 0
v -14 0 0
v -15 -1 0
v -16 -1 0
v -16 0 0
v -15 0 0
v -16 -1 0
v -17 -1 0
v -17 0 0
v -16 0 0
v -17 -1 0
v -18 -1 0
v -18 0 0
v -17 0 0
v -18 -1 0
v -19 -1 0
v -19 0 0
v -18 0 0
v -14 -2 0
v -15 -2 0
v -15 -1 0
v -14 -1 0
v -15 -2 0
v -16 -2 0
v -16 -1 0
v -15 -1 0
v -16 -2 0
v -17 -2 0
v -17 -1 0
v -16 -1 0
v -17 -2 0
v -18 -2 0
v -18 -1 0
v -17 -1 0
v -18 -2 0
v -19 -2 0
v -19 -1 0
v -18 -1 0
v -14 -3 0
v -15 -3 0
v -15 -2 0
v -14 -2 0
v -15 -3 0
v -16 -3 0
v -16 -2 0
v -15 -2 0
v -16 -3 0
v -17 -3 0
v -17 -2 0
v -16 -2 0
v -17 -3 0
v -18 -3 0
v -18 -2 0
v -17 -2 0
v -18 -3 0
v -19 -3 0
v -19 -2 0
v -18 -2 0
v -14 -4 0
v -15 -4 0
v -15 -3 0
v -14 -3 0
v -15 -4 0
v -16 -4 0
v -16 -3 0
v -15 -3 0
v -16 -4 0
v -17 -4 0
v -17 -3 0
v -16 -3 0
v -17 -4 0
v -18 -4 0
v -18 -3 0
v -17 -3 0
v -18 -4 0
v -19 -4 0
v -19 -3 0
v -18 -3 0
v -14 -5 0
v -15 -5 0
v -15 -4 0
v -14 -4 0
v -15 -5 0
v -16 -5 0
v -16 -4 0
v -15 -4 0
v -16 -5 0
v -17 -5 0
v -17 -4 0
v -16 -4 0
v -17 -5 0
v -18 -5 0
v -18 -4 0
v -17 -4 0
v -18 -5 0
v -19 -5 0
v -19 -4 0
v -18 -4 0
v 0 -6 0
v -1 -6 0
v -1 -5 0
v 0 -5 0
v -1 -6 0
v -2 -6 0
v -2 -5 0
v -1 -5 0
v -2 -6 0
v -3 -6 0
v -3 -5 0
v -2 -5 0
v -3 -6 0
v -4 -6 0
v -4 -5 0
v -3 -5 0
v -4 -6 0
v -5 -6 0
v -5 -5 0
v -4 -5 0
v -5 -6 0
v -6 -6 0
v -6 -5 0
v -5 -5 0
v -14 -6 0
v -15 -6 0
v -15 -5 0
v -14 -5 0
v -15 -6 0
v -16 -6 0
v -16 -5 0
v -15 -5 0
v -16 -6 0
v -17 -6 0
v -17 -5 0
v -16 -5 0
v -17 -6 0
v -18 -6 0
v -18 -5 0
v -17 -5 0
v -18 -6 0
v -19 -6 0
v -19 -5 0
v -18 -5 0
v 0 -7 0
v -1 -7 0
v -1 -6 0
v 0 -6 0
v -1 -7 0
v -2 -7 0
v -2 -6 0
v -1 -6 0
v -2 -7 0
v -3 -7 0
v -3 -6 0
v -2 -6 0
v -3 -7 0
v -4 -7 0
v -4 -6 0
v -3 -6 0
v -4 -7 0
v -5 -7 0
v -5 -6 0
v -4 -6 0
v -5 -7 0
v -6 -7 0
v -6 -6 0
v -5 -6 0
v 0 -8 0
v -1 -8 0
v -1 -7 0
v 0 -7 0
v -1 -8 0
v -2 -8 0
v -2 -7 0
v -1 -7 0
v -2 -8 0
v -3 -8 0
v -3 -7 0
v -2 -7 0
v -3 -8 0
v -4 -8 0
v -4 -7 0
v -3 -7 0
v -4 -8 0
v -5 -8 0
v -5 -7 0
v -4 -7 0
v -5 -8 0
v -6 -8 0
v -6 -7 0
v -5 -7 0
v -1 -9 0
v -2 -9 0
v -2 -8 0
v -1 -8 0
v -2 -9 0
v -3 -9 0
v -3 -8 0
v -2 -8 0
v -3 -9 0
v -4 -9 0
v -4 -8 0
v -3 -8 0
v -4 -9 0
v -5 -9 0
v -5 -8 0
v -4 -8 0
v -5 -9 0
v -6 -9 0
v -6 -8 0
v -5 -8 0
v -6 -9 0
v -7 -9 0
v -7 -8 0
v -6 -8 0
v -1 -10 0
v -2 -10 0
v -2 -9 0
v -1 -9 0
v -2 -10 0
v -3 -10 0
v -3 -9 0
v -2 -9 0
v -3 -10 0
v -4 -10 0
v -4 -9 0
v -3 -9 0
v -4 -10 0
v -5 -10 0
v -5 -9 0
v -4 -9 0
v -5 -10 0
v -6 -10 0
v -6 -9 0
v -5 -9 0
v -6 -10 0
v -7 -10 0
v -7 -9 0
v -6 -9 0
v 0 -11 0
v -1 -11 0
v -1 -10 0
v 0 -10 0
v -1 -11 0
v -2 -11 0
v -2 -10 0
v -1 -10 0
v -2 -11 0
v -3 -11 0
v -3 -10 0
v -2 -10 0
v -3 -11 0
v -4 -11 0
v -4 -10 0
v -3 -10 0
v -4 -11 0
v -5 -11 0
v -5 -10 0
v -4 -10 0
v -5 -11 0
v -6 -11 0
v -6 -10 0
v -5 -10 0
v -6 -11 0
v -7 -11 0
v -7 -10 0
v -6 -10 0
v 0 -12 0
v -1 -12 0
v -1 -11 0
v 0 -11 0
v -1 -12 0
v -2 -12 0
v -2 -11 0
v -1 -11 0
v -2 -12 0
v -3 -12 0
v -3 -11 0
v -2 -11 0
v -3 -12 0
v -4 -12 0
v -4 -11 0
v -3 -11 0
v -4 -12 0
v -5 -12 0
v -5 -11 0
v -4 -11 0
v -5 -12 0
v -6 -12 0
v -6 -11 0
v -5 -11 0
v -6 -12 0
v -7 -12 0
v -7 -11 0
v -6 -11 0
v 0 -13 0
v -1 -13 0
v -1 -12 0
v 0 -12 0
v -1 -13 0
v -2 -13 0
v -2 -12 0
v -1 -12 0
v -2 -13 0
v -3 -13 0
v -3 -12 0
v -2 -12 0
v -3 -13 0
v -4 -13 0
v -4 -12 0
v -3 -12 0
v -4 -13 0
v -5 -13 0
v -5 -12 0
v -4 -12 0
v -5 -13 0
v -6 -13 0
v -6 -12 0
v -5 -12 0
v 0 -14 0
v -1 -14 0
v -1 -13 0
v 0 -13 0
v -1 -14 0
v -2 -14 0
v -2 -13 0
v -1 -13 0
v -2 -14 0
v -3 -14 0
v -3 -13 0
v -2 -13 0
v -3 -14 0
v -4 -14 0
v -4 -13 0
v -3 -13 0
v -4 -14 0
v -5 -14 0
v -5 -13 0
v -4 -13 0
v -5 -14 0
v -6 -14 0
v -6 -13 0
v -5 -13 0
v 0 -15 0
v -1 -15 0
v -1 -14 0
v 0 -14 0
v -1 -15 0
v -2 -15 0
v -2 -14 0
v -1 -14 0
v -2 -15 0
v -3 -15 0
v -3 -14 0
v -2 -14 0
v -3 -15 0
v -4 -15 0
v -4 -14 0
v -3 -14 0
v -4 -15 0
v -5 -15 0
v -5 -14 0
v -4 -14 0
v -5 -15 0
v -6 -15 0
v -6 -14 0
v -5 -14 0
v 0 -16 0
v -1 -16 0
v -1 -15 0
v 0 -15 0
v -1 -16 0
v -2 -16 0
v -2 -15 0
v -1 -15 0
v -2 -16 0
v -3 -16 0
v -3 -15 0
v -2 -15 0
v -3 -16 0
v -4 -16 0
v -4 -15 0
v -3 -15 0
v -4 -16 0
v -5 -16 0
v -5 -15 0
v -4 -15 0
v 0 -17 0
v -1 -17 0
v -1 -16 0
v 0 -16 0
v -1 -17 0
v -2 -17 0
v -2 -16 0
v -1 -16 0
v -2 -17 0
v -3 -17 0
v -3 -16 0
v -2 -16 0
v -3 -17 0
v -4 -17 0
v -4 -16 0
v -3 -16 0
v -4 -17 0
v -5 -17 0
v -5 -16 0
v -4 -16 0
v 0 -18 0
v -1 -18 0
v -1 -17 0
v 0 -17 0
v -1 -18 0
v -2 -18 0
v -2 -17 0
v -1 -17 0
v -2 -18 0
v -3 -18 0
v -3 -17 0
v -2 -17 0
v -3 -18 0
v -4 -18 0
v -4 -17 0
v -3 -17 0
v -4 -18 0
v -5 -18 0
v -5 -17 0
v -4 -17 0
v -5 -18 0
v -6 -18 0
v -6 -17 0
v -5 -17 0
v 0 -19 0
v -1 -19 0
v -1 -18 0
v 0 -18 0
v -1 -19 0
v -2 -19 0
v -2 -18 0
v -1 -18 0
v -2 -19 0
v -3 -19 0
v -3 -18 0
v -2 -18 0
v -3 -19 0
v -4 -19 0
v -4 -18 0
v -3 -18 0
v -4 -19 0
v -5 -19 0
v -5 -18 0
v -4 -18 0
v -5 -19 0
v -6 -19 0
v -6 -18 0
v -5 -18 0
v 0 -20 0
v -1 -20 0
v -1 -19 0
v 0 -19 0
v -1 -20 0
v -2 -20 0
v -2 -19 0
v -1 -19 0
v -2 -20 0
v -3 -20 0
v -3 -19 0
v -2 -19 0
v -3 -20 0
v -4 -20 0
v -4 -19 0
v -3 -19 0
v -4 -20 0
v -5 -20 0
v -5 -19 0
v -4 -19 0
v -5 -20 0
v -6 -20 0
v -6 -19 0
v -5 -19 0
v 0 -21 0
v -1 -21 0
v -1 -20 0
v 0 -20 0
v -1 -21 0
v -2 -21 0
v -2 -20 0
v -1 -20 0
v -2 -21 0
v -3 -21 0
v -3 -20 0
v -2 -20 0
v -3 -21 0
v -4 -21 0
v -4 -20 0
v -3 -20 0
v -4 -21 0
v -5 -21 0
v -5 -20 0
v -4 -20 0
v -5 -21 0
v -6 -21 0
v -6 -20 0
v -5 -20 0
v 0 -22 0
v -1 -22 0
v -1 -21 0
v 0 -21 0
v -1 -22 0
v -2 -22 0
v -2 -21 0
v -1 -21 0
v -2 -22 0
v -3 -22 0
v -3 -21 0
v -2 -21 0
v -3 -22 0
v -4 -22 0
v -4 -21 0
v -3 -21 0
v -4 -22 0
v -5 -22 0
v -5 -21 0
v -4 -21 0
v -5 -22 0
v -6 -22 0
v -6 -21 0
v -5 -21 0
v 0 -23 0
v -1 -23 0
v -1 -22 0
v 0 -22 0
v -1 -23 0
v -2 -23 0
v -2 -22 0
v -1 -22 0
v -2 -23 0
v -3 -23 0
v -3 -22 0
v -2 -22 0
v -3 -23 0
v -4 -23 0
v -4 -22 0
v -3 -22 0
v -4 -23 0
v -5 -23 0
v -5 -22 0
v -4 -22 0
v -5 -23 0
v -6 -23 0
v -6 -22 0
v -5 -22 0
v -1 -24 0
v -2 -24 0
v -2 -23 0
v -1 -23 0
v -2 -24 0
v -3 -24 0
v -3 -23 0
v -2 -23 0
v -3 -24 0
v -4 -24 0
v -4 -23 0
v -3 -23 0
v -4 -24 0
v -5 -24 0
v -5 -23 0
v -4 -23 0
v -5 -24 0
v -6 -24 0
v -6 -23 0
v -5 -23 0
v -6 -24 0
v -7 -24 0
v -7 -23 0
v -6 -23 0
v -1 -25 0
v -2 -25 0
v -2 -24 0
v -1 -24 0
v -2 -25 0
v -3 -25 0
v -3 -24 0
v -2 -24 0
v -3 -25 0
v -4 -25 0
v -4 -24 0
v -3 -24 0
v -4 -25 0
v -5 -25 0
v -5 -24 0
v -4 -24 0
v -5 -25 0
v -6 -25 0
v -6 -24 0
v -5 -24 0
v -6 -25 0
v -7 -25 0
v -7 -24 0
v -6 -24 0
v -7 -25 0
v -8 -25 0
v -8 -24 0
v -7 -24 0
v 0 -26 0
v -1 -26 0
v -1 -25 0
v 0 -25 0
v -1 -26 0
v -2 -26 0
v -2 -25 0
v -1 -25 0
v -2 -26 0
v -3 -26 0
v -3 -25 0
v -2 -25 0
v -3 -26 0
v -4 -26 0
v -4 -25 0
v -3 -25 0
v -4 -26 0
v -5 -26 0
v -5 -25 0
v -4 -25 0
v -5 -26 0
v -6 -26 0
v -6 -25 0
v -5 -25 0
v -6 -26 0
v -7 -26 0
v -7 -25 0
v -6 -25 0
v -7 -26 0
v -8 -26 0
v -8 -25 0
v -7 -25 0
v 0 -27 0
v -1 -27 0
v -1 -26 0
v 0 -26 0
v -1 -27 0
v -2 -27 0
v -2 -26 0
v -1 -26 0
v -2 -27 0
v -3 -27 0
v -3 -26 0
v -2 -26 0
v -3 -27 0
v -4 -27 0
v -4 -26 0
v -3 -26 0
v -4 -27 0
v -5 -27 0
v -5 -26 0
v -4 -26 0
v -5 -27 0
v -6 -27 0
v -6 -26 0
v -5 -26 0
v -6 -27 0
v -7 -27 0
v -7 -26 0
v -6 -26 0
v -7 -27 0
v -8 -27 0
v -8 -26 0
v -7 -26 0
v 0 -28 0
v -1 -28 0
v -1 -27 0
v 0 -27 0
v -1 -28 0
v -2 -28 0
v -2 -27 0
v -1 -27 0
v -2 -28 0
v -3 -28 0
v -3 -27 0
v -2 -27 0
v -3 -28 0
v -4 -28 0
v -4 -27 0
v -3 -27 0
v -4 -28 0
v -5 -28 0
v -5 -27 0
v -4 -27 0
v -1 -29 0
v -2 -29 0
v -2 -28 0
v -1 -28 0
v -5 -30 0
v -6 -30 0
v -6 -29 0
v -5 -29 0

# Texture cooridinates (Count = 110)
vt 0.475 0.1944444
vt 0.5 0.1944444
vt 0.5 0.2222222
vt 0.475 0.2222222
vt 0.525 0.1944444
vt 0.525 0.2222222
vt 0.55 0.1944444
vt 0.55 0.2222222
vt 0.575 0.1944444
vt 0.575 0.2222222
vt 0.6 0.1944444
vt 0.6 0.2222222
vt 0.475 0.1666667
vt 0.5 0.1666667
vt 0.525 0.1666667
vt 0.55 0.1666667
vt 0.575 0.1666667
vt 0.6 0.1666667
vt 0.475 0.1388889
vt 0.5 0.1388889
vt 0.525 0.1388889
vt 0.55 0.1388889
vt 0.575 0.1388889
vt 0.6 0.1388889
vt 0.475 0.1111111
vt 0.5 0.1111111
vt 0.525 0.1111111
vt 0.55 0.1111111
vt 0.575 0.1111111
vt 0.6 0.1111111
vt 0.075 0.75
vt 0.1 0.75
vt 0.1 0.7777778
vt 0.075 0.7777778
vt 0.225 0.5277778
vt 0.225 0.5
vt 0.25 0.5
vt 0.25 0.5277778
vt 0.225 0.4722222
vt 0.25 0.4722222
vt 0.225 0.4444444
vt 0.225 0.4166667
vt 0.25 0.4166667
vt 0.25 0.4444444
vt 0.225 0.3888889
vt 0.25 0.3888889
vt 0.475 0.08333331
vt 0.5 0.08333331
vt 0.525 0.08333331
vt 0.55 0.08333331
vt 0.575 0.08333331
vt 0.6 0.08333331
vt 0.125 0.75
vt 0.125 0.7222222
vt 0.15 0.7222222
vt 0.15 0.75
vt 0.075 0.6388889
vt 0.1 0.6388889
vt 0.1 0.6666666
vt 0.075 0.6666666
vt 0.125 0.6944444
vt 0.125 0.6666666
vt 0.15 0.6666666
vt 0.15 0.6944444
vt 0.125 0.6388889
vt 0.15 0.6388889
vt 0.125 0.6111111
vt 0.125 0.5833334
vt 0.15 0.5833334
vt 0.15 0.6111111
vt 0.125 0.5555556
vt 0.15 0.5555556
vt 0.25 0.8611111
vt 0.25 0.8333333
vt 0.275 0.8333333
vt 0.275 0.8611111
vt 0.1 0.6944444
vt 0.075 0.6944444
vt 0.175 0.6666666
vt 0.175 0.6944444
vt 0.175 0.6388889
vt 0.175 0.5833334
vt 0.175 0.6111111
vt 0.2 0.8611111
vt 0.2 0.8333333
vt 0.225 0.8333333
vt 0.225 0.8611111
vt 0.15 0.8611111
vt 0.15 0.8333333
vt 0.175 0.8333333
vt 0.175 0.8611111
vt 0.1 0.6111111
vt 0.1 0.5833334
vt 0.2 0.6666666
vt 0.2 0.6944444
vt 0.2 0.6388889
vt 0.125 0.9722222
vt 0.125 0.9444444
vt 0.15 0.9444444
vt 0.15 0.9722222
vt 0.125 0.9166667
vt 0.15 0.9166667
vt 0.1 0.9722222
vt 0.1 0.9444444
vt 0.1 0.9166667
vt 0.1 0.7222222
vt 0.025 0.6111111
vt 0.05 0.6111111
vt 0.05 0.6388889
vt 0.025 0.6388889

# Normal
vn 0 0 -1

# Mesh description
g WorldArea1_mesh_0004

# Faces
f 1/1/1 2/2/1 3/3/1 4/4/1
f 5/2/1 6/5/1 7/6/1 8/3/1
f 9/5/1 10/7/1 11/8/1 12/6/1
f 13/7/1 14/9/1 15/10/1 16/8/1
f 17/9/1 18/11/1 19/12/1 20/10/1
f 21/13/1 22/14/1 23/2/1 24/1/1
f 25/14/1 26/15/1 27/5/1 28/2/1
f 29/15/1 30/16/1 31/7/1 32/5/1
f 33/16/1 34/17/1 35/9/1 36/7/1
f 37/17/1 38/18/1 39/11/1 40/9/1
f 41/19/1 42/20/1 43/14/1 44/13/1
f 45/20/1 46/21/1 47/15/1 48/14/1
f 49/21/1 50/22/1 51/16/1 52/15/1
f 53/22/1 54/23/1 55/17/1 56/16/1
f 57/23/1 58/24/1 59/18/1 60/17/1
f 61/19/1 62/20/1 63/14/1 64/13/1
f 65/20/1 66/21/1 67/15/1 68/14/1
f 69/21/1 70/22/1 71/16/1 72/15/1
f 73/22/1 74/23/1 75/17/1 76/16/1
f 77/23/1 78/24/1 79/18/1 80/17/1
f 81/25/1 82/26/1 83/20/1 84/19/1
f 85/26/1 86/27/1 87/21/1 88/20/1
f 89/27/1 90/28/1 91/22/1 92/21/1
f 93/28/1 94/29/1 95/23/1 96/22/1
f 97/29/1 98/30/1 99/24/1 100/23/1
f 101/31/1 102/32/1 103/33/1 104/34/1
f 105/31/1 106/32/1 107/33/1 108/34/1
f 109/35/1 110/36/1 111/37/1 112/38/1
f 113/36/1 114/39/1 115/40/1 116/37/1
f 117/41/1 118/42/1 119/43/1 120/44/1
f 121/42/1 122/45/1 123/46/1 124/43/1
f 125/47/1 126/48/1 127/26/1 128/25/1
f 129/48/1 130/49/1 131/27/1 132/26/1
f 133/49/1 134/50/1 135/28/1 136/27/1
f 137/50/1 138/51/1 139/29/1 140/28/1
f 141/51/1 142/52/1 143/30/1 144/29/1
f 145/53/1 146/54/1 147/55/1 148/56/1
f 149/57/1 150/58/1 151/59/1 152/60/1
f 153/61/1 154/62/1 155/63/1 156/64/1
f 157/62/1 158/65/1 159/66/1 160/63/1
f 161/67/1 162/68/1 163/69/1 164/70/1
f 165/68/1 166/71/1 167/72/1 168/69/1
f 169/53/1 170/54/1 171/55/1 172/56/1
f 173/73/1 174/74/1 175/75/1 176/76/1
f 177/61/1 178/62/1 179/63/1 180/64/1
f 181/59/1 182/58/1 183/65/1 184/62/1
f 185/67/1 186/68/1 187/69/1 188/70/1
f 189/68/1 190/71/1 191/72/1 192/69/1
f 193/60/1 194/59/1 195/77/1 196/78/1
f 197/54/1 198/61/1 199/64/1 200/55/1
f 201/64/1 202/63/1 203/79/1 204/80/1
f 205/63/1 206/66/1 207/81/1 208/79/1
f 209/70/1 210/69/1 211/82/1 212/83/1
f 213/68/1 214/71/1 215/72/1 216/69/1
f 217/57/1 218/58/1 219/59/1 220/60/1
f 221/54/1 222/61/1 223/64/1 224/55/1
f 225/61/1 226/62/1 227/63/1 228/64/1
f 229/62/1 230/65/1 231/66/1 232/63/1
f 233/67/1 234/68/1 235/69/1 236/70/1
f 237/68/1 238/71/1 239/72/1 240/69/1
f 241/84/1 242/85/1 243/86/1 244/87/1
f 245/53/1 246/54/1 247/55/1 248/56/1
f 249/57/1 250/58/1 251/59/1 252/60/1
f 253/61/1 254/62/1 255/63/1 256/64/1
f 257/62/1 258/65/1 259/66/1 260/63/1
f 261/67/1 262/68/1 263/69/1 264/70/1
f 265/68/1 266/71/1 267/72/1 268/69/1
f 269/53/1 270/54/1 271/55/1 272/56/1
f 273/53/1 274/54/1 275/55/1 276/56/1
f 277/88/1 278/89/1 279/90/1 280/91/1
f 281/77/1 282/59/1 283/62/1 284/61/1
f 285/59/1 286/58/1 287/65/1 288/62/1
f 289/92/1 290/93/1 291/68/1 292/67/1
f 293/68/1 294/71/1 295/72/1 296/69/1
f 297/53/1 298/54/1 299/55/1 300/56/1
f 301/54/1 302/61/1 303/64/1 304/55/1
f 305/61/1 306/62/1 307/63/1 308/64/1
f 309/62/1 310/65/1 311/66/1 312/63/1
f 313/67/1 314/68/1 315/69/1 316/70/1
f 317/68/1 318/71/1 319/72/1 320/69/1
f 321/53/1 322/54/1 323/55/1 324/56/1
f 325/57/1 326/58/1 327/59/1 328/60/1
f 329/61/1 330/62/1 331/63/1 332/64/1
f 333/62/1 334/65/1 335/66/1 336/63/1
f 337/67/1 338/68/1 339/69/1 340/70/1
f 341/68/1 342/71/1 343/72/1 344/69/1
f 345/53/1 346/54/1 347/55/1 348/56/1
f 349/54/1 350/61/1 351/64/1 352/55/1
f 353/61/1 354/62/1 355/63/1 356/64/1
f 357/62/1 358/65/1 359/66/1 360/63/1
f 361/92/1 362/93/1 363/68/1 364/67/1
f 365/68/1 366/71/1 367/72/1 368/69/1
f 369/60/1 370/59/1 371/77/1 372/78/1
f 373/84/1 374/85/1 375/86/1 376/87/1
f 377/61/1 378/62/1 379/63/1 380/64/1
f 381/80/1 382/79/1 383/94/1 384/95/1
f 385/79/1 386/81/1 387/96/1 388/94/1
f 389/53/1 390/54/1 391/55/1 392/56/1
f 393/54/1 394/61/1 395/64/1 396/55/1
f 397/61/1 398/62/1 399/63/1 400/64/1
f 401/62/1 402/65/1 403/66/1 404/63/1
f 405/70/1 406/69/1 407/82/1 408/83/1
f 409/97/1 410/98/1 411/99/1 412/100/1
f 413/98/1 414/101/1 415/102/1 416/99/1
f 417/54/1 418/61/1 419/64/1 420/55/1
f 421/64/1 422/63/1 423/79/1 424/80/1
f 425/63/1 426/66/1 427/81/1 428/79/1
f 429/70/1 430/69/1 431/82/1 432/83/1
f 433/103/1 434/104/1 435/98/1 436/97/1
f 437/104/1 438/105/1 439/101/1 440/98/1
f 441/54/1 442/61/1 443/64/1 444/55/1
f 445/77/1 446/59/1 447/62/1 448/61/1
f 449/59/1 450/58/1 451/65/1 452/62/1
f 453/92/1 454/93/1 455/68/1 456/67/1
f 457/53/1 458/54/1 459/55/1 460/56/1
f 461/60/1 462/59/1 463/77/1 464/78/1
f 465/61/1 466/62/1 467/63/1 468/64/1
f 469/62/1 470/65/1 471/66/1 472/63/1
f 473/67/1 474/68/1 475/69/1 476/70/1
f 477/68/1 478/71/1 479/72/1 480/69/1
f 481/53/1 482/54/1 483/55/1 484/56/1
f 485/57/1 486/58/1 487/59/1 488/60/1
f 489/61/1 490/62/1 491/63/1 492/64/1
f 493/62/1 494/65/1 495/66/1 496/63/1
f 497/67/1 498/68/1 499/69/1 500/70/1
f 501/68/1 502/71/1 503/72/1 504/69/1
f 505/53/1 506/54/1 507/55/1 508/56/1
f 509/73/1 510/74/1 511/75/1 512/76/1
f 513/61/1 514/62/1 515/63/1 516/64/1
f 517/62/1 518/65/1 519/66/1 520/63/1
f 521/67/1 522/68/1 523/69/1 524/70/1
f 525/68/1 526/71/1 527/72/1 528/69/1
f 529/53/1 530/54/1 531/55/1 532/56/1
f 533/60/1 534/59/1 535/77/1 536/78/1
f 537/61/1 538/62/1 539/63/1 540/64/1
f 541/62/1 542/65/1 543/66/1 544/63/1
f 545/67/1 546/68/1 547/69/1 548/70/1
f 549/68/1 550/71/1 551/72/1 552/69/1
f 553/53/1 554/54/1 555/55/1 556/56/1
f 557/54/1 558/61/1 559/64/1 560/55/1
f 561/64/1 562/63/1 563/79/1 564/80/1
f 565/63/1 566/66/1 567/81/1 568/79/1
f 569/70/1 570/69/1 571/82/1 572/83/1
f 573/68/1 574/71/1 575/72/1 576/69/1
f 577/60/1 578/59/1 579/77/1 580/78/1
f 581/53/1 582/54/1 583/55/1 584/56/1
f 585/54/1 586/61/1 587/64/1 588/55/1
f 589/64/1 590/63/1 591/79/1 592/80/1
f 593/63/1 594/66/1 595/81/1 596/79/1
f 597/70/1 598/69/1 599/82/1 600/83/1
f 601/68/1 602/71/1 603/72/1 604/69/1
f 605/53/1 606/54/1 607/55/1 608/56/1
f 609/54/1 610/61/1 611/64/1 612/55/1
f 613/84/1 614/85/1 615/86/1 616/87/1
f 617/57/1 618/58/1 619/59/1 620/60/1
f 621/61/1 622/62/1 623/63/1 624/64/1
f 625/62/1 626/65/1 627/66/1 628/63/1
f 629/67/1 630/68/1 631/69/1 632/70/1
f 633/68/1 634/71/1 635/72/1 636/69/1
f 637/53/1 638/54/1 639/55/1 640/56/1
f 641/60/1 642/59/1 643/77/1 644/78/1
f 645/53/1 646/54/1 647/55/1 648/56/1
f 649/106/1 650/77/1 651/61/1 652/54/1
f 653/77/1 654/59/1 655/62/1 656/61/1
f 657/59/1 658/58/1 659/65/1 660/62/1
f 661/92/1 662/93/1 663/68/1 664/67/1
f 665/68/1 666/71/1 667/72/1 668/69/1
f 669/84/1 670/85/1 671/86/1 672/87/1
f 673/54/1 674/61/1 675/64/1 676/55/1
f 677/61/1 678/62/1 679/63/1 680/64/1
f 681/62/1 682/65/1 683/66/1 684/63/1
f 685/67/1 686/68/1 687/69/1 688/70/1
f 689/57/1 690/58/1 691/59/1 692/60/1
f 693/107/1 694/108/1 695/109/1 696/110/1

