# Tiled2Unity generated file. Do not modify by hand.
# Wavefront file for 'House-1_Lang_feuer_links_mesh_0002.obj'

# Vertices (Count = 672)
v -7 -1 0
v -8 -1 0
v -8 0 0
v -7 0 0
v -8 -1 0
v -9 -1 0
v -9 0 0
v -8 0 0
v -5 -2 0
v -6 -2 0
v -6 -1 0
v -5 -1 0
v -6 -2 0
v -7 -2 0
v -7 -1 0
v -6 -1 0
v -7 -2 0
v -8 -2 0
v -8 -1 0
v -7 -1 0
v -8 -2 0
v -9 -2 0
v -9 -1 0
v -8 -1 0
v -9 -2 0
v -10 -2 0
v -10 -1 0
v -9 -1 0
v -10 -2 0
v -11 -2 0
v -11 -1 0
v -10 -1 0
v -5 -3 0
v -6 -3 0
v -6 -2 0
v -5 -2 0
v -6 -3 0
v -7 -3 0
v -7 -2 0
v -6 -2 0
v -7 -3 0
v -8 -3 0
v -8 -2 0
v -7 -2 0
v -8 -3 0
v -9 -3 0
v -9 -2 0
v -8 -2 0
v -9 -3 0
v -10 -3 0
v -10 -2 0
v -9 -2 0
v -10 -3 0
v -11 -3 0
v -11 -2 0
v -10 -2 0
v -5 -4 0
v -6 -4 0
v -6 -3 0
v -5 -3 0
v -6 -4 0
v -7 -4 0
v -7 -3 0
v -6 -3 0
v -7 -4 0
v -8 -4 0
v -8 -3 0
v -7 -3 0
v -8 -4 0
v -9 -4 0
v -9 -3 0
v -8 -3 0
v -9 -4 0
v -10 -4 0
v -10 -3 0
v -9 -3 0
v -10 -4 0
v -11 -4 0
v -11 -3 0
v -10 -3 0
v -12 -4 0
v -13 -4 0
v -13 -3 0
v -12 -3 0
v -2 -5 0
v -3 -5 0
v -3 -4 0
v -2 -4 0
v -3 -5 0
v -4 -5 0
v -4 -4 0
v -3 -4 0
v -4 -5 0
v -5 -5 0
v -5 -4 0
v -4 -4 0
v -5 -5 0
v -6 -5 0
v -6 -4 0
v -5 -4 0
v -12 -5 0
v -13 -5 0
v -13 -4 0
v -12 -4 0
v 0 -6 0
v -1 -6 0
v -1 -5 0
v 0 -5 0
v -1 -6 0
v -2 -6 0
v -2 -5 0
v -1 -5 0
v -2 -6 0
v -3 -6 0
v -3 -5 0
v -2 -5 0
v -3 -6 0
v -4 -6 0
v -4 -5 0
v -3 -5 0
v -4 -6 0
v -5 -6 0
v -5 -5 0
v -4 -5 0
v -5 -6 0
v -6 -6 0
v -6 -5 0
v -5 -5 0
v -8 -6 0
v -9 -6 0
v -9 -5 0
v -8 -5 0
v -9 -6 0
v -10 -6 0
v -10 -5 0
v -9 -5 0
v -10 -6 0
v -11 -6 0
v -11 -5 0
v -10 -5 0
v -11 -6 0
v -12 -6 0
v -12 -5 0
v -11 -5 0
v -12 -6 0
v -13 -6 0
v -13 -5 0
v -12 -5 0
v -13 -6 0
v -14 -6 0
v -14 -5 0
v -13 -5 0
v -14 -6 0
v -15 -6 0
v -15 -5 0
v -14 -5 0
v -15 -6 0
v -16 -6 0
v -16 -5 0
v -15 -5 0
v 0 -7 0
v -1 -7 0
v -1 -6 0
v 0 -6 0
v -1 -7 0
v -2 -7 0
v -2 -6 0
v -1 -6 0
v -2 -7 0
v -3 -7 0
v -3 -6 0
v -2 -6 0
v -3 -7 0
v -4 -7 0
v -4 -6 0
v -3 -6 0
v -4 -7 0
v -5 -7 0
v -5 -6 0
v -4 -6 0
v -5 -7 0
v -6 -7 0
v -6 -6 0
v -5 -6 0
v -8 -7 0
v -9 -7 0
v -9 -6 0
v -8 -6 0
v -9 -7 0
v -10 -7 0
v -10 -6 0
v -9 -6 0
v -10 -7 0
v -11 -7 0
v -11 -6 0
v -10 -6 0
v -11 -7 0
v -12 -7 0
v -12 -6 0
v -11 -6 0
v -12 -7 0
v -13 -7 0
v -13 -6 0
v -12 -6 0
v -13 -7 0
v -14 -7 0
v -14 -6 0
v -13 -6 0
v -14 -7 0
v -15 -7 0
v -15 -6 0
v -14 -6 0
v -15 -7 0
v -16 -7 0
v -16 -6 0
v -15 -6 0
v -2 -8 0
v -3 -8 0
v -3 -7 0
v -2 -7 0
v -3 -8 0
v -4 -8 0
v -4 -7 0
v -3 -7 0
v -4 -8 0
v -5 -8 0
v -5 -7 0
v -4 -7 0
v -5 -8 0
v -6 -8 0
v -6 -7 0
v -5 -7 0
v -8 -8 0
v -9 -8 0
v -9 -7 0
v -8 -7 0
v -9 -8 0
v -10 -8 0
v -10 -7 0
v -9 -7 0
v -10 -8 0
v -11 -8 0
v -11 -7 0
v -10 -7 0
v -11 -8 0
v -12 -8 0
v -12 -7 0
v -11 -7 0
v -12 -8 0
v -13 -8 0
v -13 -7 0
v -12 -7 0
v -13 -8 0
v -14 -8 0
v -14 -7 0
v -13 -7 0
v -2 -9 0
v -3 -9 0
v -3 -8 0
v -2 -8 0
v -3 -9 0
v -4 -9 0
v -4 -8 0
v -3 -8 0
v -4 -9 0
v -5 -9 0
v -5 -8 0
v -4 -8 0
v -5 -9 0
v -6 -9 0
v -6 -8 0
v -5 -8 0
v -10 -9 0
v -11 -9 0
v -11 -8 0
v -10 -8 0
v -12 -9 0
v -13 -9 0
v -13 -8 0
v -12 -8 0
v -2 -10 0
v -3 -10 0
v -3 -9 0
v -2 -9 0
v -3 -10 0
v -4 -10 0
v -4 -9 0
v -3 -9 0
v -4 -10 0
v -5 -10 0
v -5 -9 0
v -4 -9 0
v -5 -10 0
v -6 -10 0
v -6 -9 0
v -5 -9 0
v -10 -10 0
v -11 -10 0
v -11 -9 0
v -10 -9 0
v -12 -10 0
v -13 -10 0
v -13 -9 0
v -12 -9 0
v -2 -11 0
v -3 -11 0
v -3 -10 0
v -2 -10 0
v -3 -11 0
v -4 -11 0
v -4 -10 0
v -3 -10 0
v -4 -11 0
v -5 -11 0
v -5 -10 0
v -4 -10 0
v -5 -11 0
v -6 -11 0
v -6 -10 0
v -5 -10 0
v -8 -11 0
v -9 -11 0
v -9 -10 0
v -8 -10 0
v -9 -11 0
v -10 -11 0
v -10 -10 0
v -9 -10 0
v -10 -11 0
v -11 -11 0
v -11 -10 0
v -10 -10 0
v -11 -11 0
v -12 -11 0
v -12 -10 0
v -11 -10 0
v -12 -11 0
v -13 -11 0
v -13 -10 0
v -12 -10 0
v -13 -11 0
v -14 -11 0
v -14 -10 0
v -13 -10 0
v -2 -12 0
v -3 -12 0
v -3 -11 0
v -2 -11 0
v -3 -12 0
v -4 -12 0
v -4 -11 0
v -3 -11 0
v -4 -12 0
v -5 -12 0
v -5 -11 0
v -4 -11 0
v -5 -12 0
v -6 -12 0
v -6 -11 0
v -5 -11 0
v -8 -12 0
v -9 -12 0
v -9 -11 0
v -8 -11 0
v -9 -12 0
v -10 -12 0
v -10 -11 0
v -9 -11 0
v -10 -12 0
v -11 -12 0
v -11 -11 0
v -10 -11 0
v -11 -12 0
v -12 -12 0
v -12 -11 0
v -11 -11 0
v -12 -12 0
v -13 -12 0
v -13 -11 0
v -12 -11 0
v -13 -12 0
v -14 -12 0
v -14 -11 0
v -13 -11 0
v -2 -13 0
v -3 -13 0
v -3 -12 0
v -2 -12 0
v -3 -13 0
v -4 -13 0
v -4 -12 0
v -3 -12 0
v -4 -13 0
v -5 -13 0
v -5 -12 0
v -4 -12 0
v -5 -13 0
v -6 -13 0
v -6 -12 0
v -5 -12 0
v -8 -13 0
v -9 -13 0
v -9 -12 0
v -8 -12 0
v -9 -13 0
v -10 -13 0
v -10 -12 0
v -9 -12 0
v -10 -13 0
v -11 -13 0
v -11 -12 0
v -10 -12 0
v -11 -13 0
v -12 -13 0
v -12 -12 0
v -11 -12 0
v -12 -13 0
v -13 -13 0
v -13 -12 0
v -12 -12 0
v -13 -13 0
v -14 -13 0
v -14 -12 0
v -13 -12 0
v -2 -14 0
v -3 -14 0
v -3 -13 0
v -2 -13 0
v -3 -14 0
v -4 -14 0
v -4 -13 0
v -3 -13 0
v -4 -14 0
v -5 -14 0
v -5 -13 0
v -4 -13 0
v -5 -14 0
v -6 -14 0
v -6 -13 0
v -5 -13 0
v -2 -15 0
v -3 -15 0
v -3 -14 0
v -2 -14 0
v -3 -15 0
v -4 -15 0
v -4 -14 0
v -3 -14 0
v -4 -15 0
v -5 -15 0
v -5 -14 0
v -4 -14 0
v -5 -15 0
v -6 -15 0
v -6 -14 0
v -5 -14 0
v -10 -15 0
v -11 -15 0
v -11 -14 0
v -10 -14 0
v -12 -15 0
v -13 -15 0
v -13 -14 0
v -12 -14 0
v -2 -16 0
v -3 -16 0
v -3 -15 0
v -2 -15 0
v -3 -16 0
v -4 -16 0
v -4 -15 0
v -3 -15 0
v -4 -16 0
v -5 -16 0
v -5 -15 0
v -4 -15 0
v -5 -16 0
v -6 -16 0
v -6 -15 0
v -5 -15 0
v -10 -16 0
v -11 -16 0
v -11 -15 0
v -10 -15 0
v -12 -16 0
v -13 -16 0
v -13 -15 0
v -12 -15 0
v 0 -17 0
v -1 -17 0
v -1 -16 0
v 0 -16 0
v -1 -17 0
v -2 -17 0
v -2 -16 0
v -1 -16 0
v -2 -17 0
v -3 -17 0
v -3 -16 0
v -2 -16 0
v -3 -17 0
v -4 -17 0
v -4 -16 0
v -3 -16 0
v -4 -17 0
v -5 -17 0
v -5 -16 0
v -4 -16 0
v -5 -17 0
v -6 -17 0
v -6 -16 0
v -5 -16 0
v -8 -17 0
v -9 -17 0
v -9 -16 0
v -8 -16 0
v -9 -17 0
v -10 -17 0
v -10 -16 0
v -9 -16 0
v -10 -17 0
v -11 -17 0
v -11 -16 0
v -10 -16 0
v -11 -17 0
v -12 -17 0
v -12 -16 0
v -11 -16 0
v -12 -17 0
v -13 -17 0
v -13 -16 0
v -12 -16 0
v -13 -17 0
v -14 -17 0
v -14 -16 0
v -13 -16 0
v -14 -17 0
v -15 -17 0
v -15 -16 0
v -14 -16 0
v -15 -17 0
v -16 -17 0
v -16 -16 0
v -15 -16 0
v 0 -18 0
v -1 -18 0
v -1 -17 0
v 0 -17 0
v -1 -18 0
v -2 -18 0
v -2 -17 0
v -1 -17 0
v -2 -18 0
v -3 -18 0
v -3 -17 0
v -2 -17 0
v -3 -18 0
v -4 -18 0
v -4 -17 0
v -3 -17 0
v -4 -18 0
v -5 -18 0
v -5 -17 0
v -4 -17 0
v -5 -18 0
v -6 -18 0
v -6 -17 0
v -5 -17 0
v -8 -18 0
v -9 -18 0
v -9 -17 0
v -8 -17 0
v -9 -18 0
v -10 -18 0
v -10 -17 0
v -9 -17 0
v -10 -18 0
v -11 -18 0
v -11 -17 0
v -10 -17 0
v -11 -18 0
v -12 -18 0
v -12 -17 0
v -11 -17 0
v -12 -18 0
v -13 -18 0
v -13 -17 0
v -12 -17 0
v -13 -18 0
v -14 -18 0
v -14 -17 0
v -13 -17 0
v -14 -18 0
v -15 -18 0
v -15 -17 0
v -14 -17 0
v -15 -18 0
v -16 -18 0
v -16 -17 0
v -15 -17 0
v -2 -19 0
v -3 -19 0
v -3 -18 0
v -2 -18 0
v -3 -19 0
v -4 -19 0
v -4 -18 0
v -3 -18 0
v -4 -19 0
v -5 -19 0
v -5 -18 0
v -4 -18 0
v -5 -19 0
v -6 -19 0
v -6 -18 0
v -5 -18 0
v -8 -19 0
v -9 -19 0
v -9 -18 0
v -8 -18 0
v -9 -19 0
v -10 -19 0
v -10 -18 0
v -9 -18 0
v -10 -19 0
v -11 -19 0
v -11 -18 0
v -10 -18 0
v -11 -19 0
v -12 -19 0
v -12 -18 0
v -11 -18 0
v -12 -19 0
v -13 -19 0
v -13 -18 0
v -12 -18 0
v -13 -19 0
v -14 -19 0
v -14 -18 0
v -13 -18 0
v -3 -21 0
v -4 -21 0
v -4 -20 0
v -3 -20 0
v -4 -21 0
v -5 -21 0
v -5 -20 0
v -4 -20 0
v -11 -21 0
v -12 -21 0
v -12 -20 0
v -11 -20 0
v -12 -21 0
v -13 -21 0
v -13 -20 0
v -12 -20 0
v -3 -22 0
v -4 -22 0
v -4 -21 0
v -3 -21 0
v -4 -22 0
v -5 -22 0
v -5 -21 0
v -4 -21 0
v -11 -22 0
v -12 -22 0
v -12 -21 0
v -11 -21 0
v -12 -22 0
v -13 -22 0
v -13 -21 0
v -12 -21 0

# Texture cooridinates (Count = 59)
vt 0.225 0.8
vt 0.25 0.8
vt 0.25 0.84
vt 0.225 0.84
vt 0.275 0.8
vt 0.275 0.84
vt 0.25 0.68
vt 0.275 0.68
vt 0.275 0.72
vt 0.25 0.72
vt 0.3 0.68
vt 0.3 0.72
vt 0.325 0.68
vt 0.325 0.72
vt 0.25 0.64
vt 0.275 0.64
vt 0.3 0.64
vt 0.325 0.64
vt 0.25 0.6
vt 0.275 0.6
vt 0.3 0.6
vt 0.325 0.6
vt 0.375 0.8
vt 0.4 0.8
vt 0.4 0.84
vt 0.375 0.84
vt 0.425 0.8
vt 0.425 0.84
vt 0.325 0.92
vt 0.35 0.92
vt 0.35 0.96
vt 0.325 0.96
vt 0.375 0.92
vt 0.4 0.92
vt 0.4 0.96
vt 0.375 0.96
vt 0.45 0.8
vt 0.475 0.8
vt 0.475 0.84
vt 0.45 0.84
vt 0.375 0.76
vt 0.4 0.76
vt 0.25 0.76
vt 0.275 0.76
vt 0.425 0.76
vt 0.325 0.88
vt 0.35 0.88
vt 0.375 0.88
vt 0.4 0.88
vt 0.45 0.76
vt 0.475 0.76
vt 0.375 0.72
vt 0.4 0.72
vt 0.225 0.76
vt 0.425 0.72
vt 0.45 0.72
vt 0.475 0.72
vt 0.325 0.84
vt 0.35 0.84

# Normal
vn 0 0 -1

# Mesh description
g House-1_Lang_feuer_links_mesh_0002

# Faces
f 1/1/1 2/2/1 3/3/1 4/4/1
f 5/2/1 6/5/1 7/6/1 8/3/1
f 9/7/1 10/8/1 11/9/1 12/10/1
f 13/8/1 14/11/1 15/12/1 16/9/1
f 17/8/1 18/11/1 19/12/1 20/9/1
f 21/8/1 22/11/1 23/12/1 24/9/1
f 25/8/1 26/11/1 27/12/1 28/9/1
f 29/11/1 30/13/1 31/14/1 32/12/1
f 33/15/1 34/16/1 35/8/1 36/7/1
f 37/16/1 38/17/1 39/11/1 40/8/1
f 41/16/1 42/17/1 43/11/1 44/8/1
f 45/16/1 46/17/1 47/11/1 48/8/1
f 49/16/1 50/17/1 51/11/1 52/8/1
f 53/17/1 54/18/1 55/13/1 56/11/1
f 57/19/1 58/20/1 59/16/1 60/15/1
f 61/20/1 62/21/1 63/17/1 64/16/1
f 65/20/1 66/21/1 67/17/1 68/16/1
f 69/20/1 70/21/1 71/17/1 72/16/1
f 73/20/1 74/21/1 75/17/1 76/16/1
f 77/21/1 78/22/1 79/18/1 80/17/1
f 81/23/1 82/24/1 83/25/1 84/26/1
f 85/24/1 86/27/1 87/28/1 88/25/1
f 89/29/1 90/30/1 91/31/1 92/32/1
f 93/33/1 94/34/1 95/35/1 96/36/1
f 97/37/1 98/38/1 99/39/1 100/40/1
f 101/41/1 102/42/1 103/24/1 104/23/1
f 105/3/1 106/2/1 107/5/1 108/6/1
f 109/2/1 110/43/1 111/44/1 112/5/1
f 113/42/1 114/45/1 115/27/1 116/24/1
f 117/46/1 118/47/1 119/30/1 120/29/1
f 121/48/1 122/49/1 123/34/1 124/33/1
f 125/50/1 126/51/1 127/38/1 128/37/1
f 129/24/1 130/27/1 131/28/1 132/25/1
f 133/29/1 134/30/1 135/31/1 136/32/1
f 137/29/1 138/30/1 139/31/1 140/32/1
f 141/30/1 142/33/1 143/36/1 144/31/1
f 145/52/1 146/53/1 147/42/1 148/41/1
f 149/33/1 150/34/1 151/35/1 152/36/1
f 153/3/1 154/2/1 155/5/1 156/6/1
f 157/2/1 158/43/1 159/44/1 160/5/1
f 161/4/1 162/1/1 163/2/1 164/3/1
f 165/1/1 166/54/1 167/43/1 168/2/1
f 169/53/1 170/55/1 171/45/1 172/42/1
f 173/46/1 174/47/1 175/30/1 176/29/1
f 177/48/1 178/49/1 179/34/1 180/33/1
f 181/56/1 182/57/1 183/51/1 184/50/1
f 185/42/1 186/45/1 187/27/1 188/24/1
f 189/46/1 190/47/1 191/30/1 192/29/1
f 193/47/1 194/48/1 195/33/1 196/30/1
f 197/47/1 198/48/1 199/33/1 200/30/1
f 201/47/1 202/48/1 203/33/1 204/30/1
f 205/48/1 206/49/1 207/34/1 208/33/1
f 209/4/1 210/1/1 211/2/1 212/3/1
f 213/1/1 214/54/1 215/43/1 216/2/1
f 217/42/1 218/45/1 219/27/1 220/24/1
f 221/46/1 222/47/1 223/30/1 224/29/1
f 225/48/1 226/49/1 227/34/1 228/33/1
f 229/50/1 230/51/1 231/38/1 232/37/1
f 233/53/1 234/55/1 235/45/1 236/42/1
f 237/58/1 238/59/1 239/47/1 240/46/1
f 241/59/1 242/26/1 243/48/1 244/47/1
f 245/59/1 246/26/1 247/48/1 248/47/1
f 249/59/1 250/26/1 251/48/1 252/47/1
f 253/26/1 254/25/1 255/49/1 256/48/1
f 257/53/1 258/55/1 259/45/1 260/42/1
f 261/46/1 262/47/1 263/30/1 264/29/1
f 265/48/1 266/49/1 267/34/1 268/33/1
f 269/56/1 270/57/1 271/51/1 272/50/1
f 273/23/1 274/24/1 275/25/1 276/26/1
f 277/23/1 278/24/1 279/25/1 280/26/1
f 281/42/1 282/45/1 283/27/1 284/24/1
f 285/46/1 286/47/1 287/30/1 288/29/1
f 289/48/1 290/49/1 291/34/1 292/33/1
f 293/50/1 294/51/1 295/38/1 296/37/1
f 297/41/1 298/42/1 299/24/1 300/23/1
f 301/41/1 302/42/1 303/24/1 304/23/1
f 305/53/1 306/55/1 307/45/1 308/42/1
f 309/46/1 310/47/1 311/30/1 312/29/1
f 313/48/1 314/49/1 315/34/1 316/33/1
f 317/56/1 318/57/1 319/51/1 320/50/1
f 321/24/1 322/27/1 323/28/1 324/25/1
f 325/29/1 326/30/1 327/31/1 328/32/1
f 329/52/1 330/53/1 331/42/1 332/41/1
f 333/30/1 334/33/1 335/36/1 336/31/1
f 337/52/1 338/53/1 339/42/1 340/41/1
f 341/33/1 342/34/1 343/35/1 344/36/1
f 345/42/1 346/45/1 347/27/1 348/24/1
f 349/46/1 350/47/1 351/30/1 352/29/1
f 353/48/1 354/49/1 355/34/1 356/33/1
f 357/50/1 358/51/1 359/38/1 360/37/1
f 361/42/1 362/45/1 363/27/1 364/24/1
f 365/46/1 366/47/1 367/30/1 368/29/1
f 369/47/1 370/48/1 371/33/1 372/30/1
f 373/47/1 374/48/1 375/33/1 376/30/1
f 377/47/1 378/48/1 379/33/1 380/30/1
f 381/48/1 382/49/1 383/34/1 384/33/1
f 385/53/1 386/55/1 387/45/1 388/42/1
f 389/46/1 390/47/1 391/30/1 392/29/1
f 393/48/1 394/49/1 395/34/1 396/33/1
f 397/56/1 398/57/1 399/51/1 400/50/1
f 401/53/1 402/55/1 403/45/1 404/42/1
f 405/58/1 406/59/1 407/47/1 408/46/1
f 409/59/1 410/26/1 411/48/1 412/47/1
f 413/59/1 414/26/1 415/48/1 416/47/1
f 417/59/1 418/26/1 419/48/1 420/47/1
f 421/26/1 422/25/1 423/49/1 424/48/1
f 425/42/1 426/45/1 427/27/1 428/24/1
f 429/46/1 430/47/1 431/30/1 432/29/1
f 433/48/1 434/49/1 435/34/1 436/33/1
f 437/50/1 438/51/1 439/38/1 440/37/1
f 441/53/1 442/55/1 443/45/1 444/42/1
f 445/46/1 446/47/1 447/30/1 448/29/1
f 449/48/1 450/49/1 451/34/1 452/33/1
f 453/56/1 454/57/1 455/51/1 456/50/1
f 457/23/1 458/24/1 459/25/1 460/26/1
f 461/23/1 462/24/1 463/25/1 464/26/1
f 465/42/1 466/45/1 467/27/1 468/24/1
f 469/46/1 470/47/1 471/30/1 472/29/1
f 473/48/1 474/49/1 475/34/1 476/33/1
f 477/50/1 478/51/1 479/38/1 480/37/1
f 481/41/1 482/42/1 483/24/1 484/23/1
f 485/41/1 486/42/1 487/24/1 488/23/1
f 489/3/1 490/2/1 491/5/1 492/6/1
f 493/2/1 494/43/1 495/44/1 496/5/1
f 497/53/1 498/55/1 499/45/1 500/42/1
f 501/46/1 502/47/1 503/30/1 504/29/1
f 505/48/1 506/49/1 507/34/1 508/33/1
f 509/56/1 510/57/1 511/51/1 512/50/1
f 513/24/1 514/27/1 515/28/1 516/25/1
f 517/29/1 518/30/1 519/31/1 520/32/1
f 521/52/1 522/53/1 523/42/1 524/41/1
f 525/30/1 526/33/1 527/36/1 528/31/1
f 529/52/1 530/53/1 531/42/1 532/41/1
f 533/33/1 534/34/1 535/35/1 536/36/1
f 537/3/1 538/2/1 539/5/1 540/6/1
f 541/2/1 542/43/1 543/44/1 544/5/1
f 545/4/1 546/1/1 547/2/1 548/3/1
f 549/1/1 550/54/1 551/43/1 552/2/1
f 553/42/1 554/45/1 555/27/1 556/24/1
f 557/46/1 558/47/1 559/30/1 560/29/1
f 561/48/1 562/49/1 563/34/1 564/33/1
f 565/50/1 566/51/1 567/38/1 568/37/1
f 569/42/1 570/45/1 571/27/1 572/24/1
f 573/46/1 574/47/1 575/30/1 576/29/1
f 577/47/1 578/48/1 579/33/1 580/30/1
f 581/47/1 582/48/1 583/33/1 584/30/1
f 585/47/1 586/48/1 587/33/1 588/30/1
f 589/48/1 590/49/1 591/34/1 592/33/1
f 593/4/1 594/1/1 595/2/1 596/3/1
f 597/1/1 598/54/1 599/43/1 600/2/1
f 601/53/1 602/55/1 603/45/1 604/42/1
f 605/58/1 606/59/1 607/47/1 608/46/1
f 609/26/1 610/25/1 611/49/1 612/48/1
f 613/56/1 614/57/1 615/51/1 616/50/1
f 617/53/1 618/55/1 619/45/1 620/42/1
f 621/58/1 622/59/1 623/47/1 624/46/1
f 625/59/1 626/26/1 627/48/1 628/47/1
f 629/59/1 630/26/1 631/48/1 632/47/1
f 633/59/1 634/26/1 635/48/1 636/47/1
f 637/26/1 638/25/1 639/49/1 640/48/1
f 641/1/1 642/2/1 643/3/1 644/4/1
f 645/2/1 646/5/1 647/6/1 648/3/1
f 649/1/1 650/2/1 651/3/1 652/4/1
f 653/2/1 654/5/1 655/6/1 656/3/1
f 657/54/1 658/43/1 659/2/1 660/1/1
f 661/43/1 662/44/1 663/5/1 664/2/1
f 665/54/1 666/43/1 667/2/1 668/1/1
f 669/43/1 670/44/1 671/5/1 672/2/1

